<svg width="22" height="22" viewBox="0 0 22 22" fill="none" xmlns="http://www.w3.org/2000/svg">
<path d="M11 0C4.95 0 0 4.95 0 11C0 17.05 4.95 22 11 22C17.05 22 22 17.05 22 11C22 4.95 17.05 0 11 0ZM15.07 11.77L11.77 15.07C11.66 15.18 11.55 15.29 11.44 15.29C11.22 15.4 10.89 15.4 10.56 15.29C10.45 15.29 10.34 15.18 10.23 15.07L6.93 11.77C6.49 11.33 6.49 10.67 6.93 10.23C7.37 9.79 8.03 9.79 8.47 10.23L9.9 11.66V7.7C9.9 7.04 10.34 6.6 11 6.6C11.66 6.6 12.1 7.04 12.1 7.7V11.66L13.53 10.23C13.97 9.79 14.63 9.79 15.07 10.23C15.51 10.67 15.51 11.33 15.07 11.77Z" fill="#B5472C"/>
</svg>
