<svg width="22" height="22" viewBox="0 0 22 22" fill="none" xmlns="http://www.w3.org/2000/svg">
<path d="M11 0C4.95 0 0 4.95 0 11C0 17.05 4.95 22 11 22C17.05 22 22 17.05 22 11C22 4.95 17.05 0 11 0ZM15.07 11.77C14.63 12.21 13.97 12.21 13.53 11.77L12.1 10.34V14.3C12.1 14.96 11.66 15.4 11 15.4C10.34 15.4 9.9 14.96 9.9 14.3V10.34L8.47 11.77C8.03 12.21 7.37 12.21 6.93 11.77C6.49 11.33 6.49 10.67 6.93 10.23L10.23 6.93C10.67 6.49 11.33 6.49 11.77 6.93L15.07 10.23C15.51 10.67 15.51 11.33 15.07 11.77Z" fill="#678478"/>
</svg>
