<svg xmlns="http://www.w3.org/2000/svg" xmlns:xlink="http://www.w3.org/1999/xlink" width="500" zoomAndPan="magnify" viewBox="0 0 375 374.999991" height="500" preserveAspectRatio="xMidYMid meet" version="1.0"><defs><clipPath id="18692cacdf"><path d="M 7 98 L 176 98 L 176 278 L 7 278 Z M 7 98 " clip-rule="nonzero"/></clipPath><clipPath id="1d60ae406f"><path d="M 38.101562 301.824219 L 3.027344 101.671875 L 140.132812 77.644531 L 175.207031 277.800781 Z M 38.101562 301.824219 " clip-rule="nonzero"/></clipPath><clipPath id="a47f96be7b"><path d="M 38.101562 301.824219 L 3.027344 101.671875 L 140.132812 77.644531 L 175.207031 277.800781 Z M 38.101562 301.824219 " clip-rule="nonzero"/></clipPath><clipPath id="fb909f14e3"><path d="M 187 109 L 368 109 L 368 280 L 187 280 Z M 187 109 " clip-rule="nonzero"/></clipPath><clipPath id="3c7ff0f3ac"><path d="M 187.34375 277.292969 L 236.457031 80.113281 L 371.527344 113.753906 L 322.414062 310.9375 Z M 187.34375 277.292969 " clip-rule="nonzero"/></clipPath><clipPath id="f2a99bf5f7"><path d="M 322.859375 311.046875 L 371.972656 113.867188 L 236.90625 80.226562 L 187.792969 277.40625 Z M 322.859375 311.046875 " clip-rule="nonzero"/></clipPath><clipPath id="76bc1fabec"><path d="M 65.714844 37.5 L 300.464844 37.5 L 300.464844 272.25 L 65.714844 272.25 Z M 65.714844 37.5 " clip-rule="nonzero"/></clipPath><clipPath id="e0cf0023a3"><path d="M 183.089844 37.5 C 118.265625 37.5 65.714844 90.050781 65.714844 154.875 C 65.714844 219.699219 118.265625 272.25 183.089844 272.25 C 247.914062 272.25 300.464844 219.699219 300.464844 154.875 C 300.464844 90.050781 247.914062 37.5 183.089844 37.5 Z M 183.089844 37.5 " clip-rule="nonzero"/></clipPath><clipPath id="39f8d0aae8"><path d="M 86.519531 78 L 236 78 L 236 251.351562 L 86.519531 251.351562 Z M 86.519531 78 " clip-rule="nonzero"/></clipPath><clipPath id="cedf422b6f"><path d="M 186 110 L 217 110 L 217 251.351562 L 186 251.351562 Z M 186 110 " clip-rule="nonzero"/></clipPath><clipPath id="c66208f06c"><path d="M 218.210938 202 L 259 202 L 259 240 L 218.210938 240 Z M 218.210938 202 " clip-rule="nonzero"/></clipPath><clipPath id="9b2bc74039"><path d="M 122.054688 90.066406 L 168.789062 90.066406 L 168.789062 155 L 122.054688 155 Z M 122.054688 90.066406 " clip-rule="nonzero"/></clipPath><clipPath id="606ca20986"><path d="M 122.054688 125 L 148 125 L 148 145 L 122.054688 145 Z M 122.054688 125 " clip-rule="nonzero"/></clipPath></defs><g clip-path="url(#18692cacdf)"><g clip-path="url(#1d60ae406f)"><g clip-path="url(#a47f96be7b)"><path fill="#3d737f" d="M 13.011719 115.601562 C 15.847656 115.636719 18.203125 116.144531 20.265625 116.972656 C 21.359375 117.417969 22.367188 117.953125 23.3125 118.589844 C 25.195312 119.871094 26.78125 121.558594 28.285156 123.535156 C 30.300781 126.183594 32.152344 129.34375 34.183594 132.832031 C 34.488281 133.335938 34.785156 133.839844 35.066406 134.347656 C 35.265625 135.464844 35.472656 136.601562 35.6875 137.757812 C 35.699219 137.835938 35.777344 137.894531 35.859375 137.882812 C 35.933594 137.871094 35.996094 137.792969 35.984375 137.714844 C 35.910156 136.988281 35.839844 136.269531 35.757812 135.5625 C 39.542969 142.332031 42.625 149.144531 45.328125 156.035156 C 45.113281 155.621094 44.898438 155.203125 44.664062 154.792969 C 43.710938 153.117188 42.613281 151.496094 41.417969 149.925781 C 39.746094 147.75 37.867188 145.679688 35.894531 143.710938 C 34.480469 142.308594 33.019531 140.953125 31.515625 139.667969 C 29.628906 138.0625 27.707031 136.550781 25.777344 135.140625 C 25.894531 134.757812 25.96875 134.363281 25.984375 133.972656 C 26.042969 132.941406 25.722656 131.96875 24.953125 131.304688 C 24.355469 130.800781 23.777344 130.527344 23.167969 130.394531 C 22.808594 130.320312 22.449219 130.292969 22.070312 130.296875 C 21.804688 130.265625 21.523438 130.265625 21.214844 130.308594 C 21.054688 130.332031 20.910156 130.359375 20.777344 130.398438 C 20.617188 130.414062 20.46875 130.433594 20.320312 130.464844 C 20.039062 130.523438 19.777344 130.636719 19.59375 130.773438 C 18.140625 131.808594 17.953125 133.699219 18.589844 135.183594 C 18.832031 135.75 19.199219 136.246094 19.65625 136.617188 C 20.765625 138.066406 22.652344 138.703125 24.335938 137.425781 C 24.628906 137.183594 24.917969 136.855469 25.15625 136.476562 C 26.941406 138.003906 28.738281 139.601562 30.496094 141.28125 C 32.589844 143.285156 34.640625 145.382812 36.542969 147.578125 C 38.25 149.535156 39.84375 151.570312 41.289062 153.652344 C 42.277344 155.070312 43.21875 156.492188 44.03125 157.96875 C 44.230469 158.3125 44.433594 158.660156 44.625 159.011719 C 43.925781 158.359375 43.210938 157.738281 42.457031 157.152344 C 41.605469 156.5 40.71875 155.90625 39.808594 155.339844 C 38.007812 154.210938 36.121094 153.210938 34.171875 152.367188 C 32.871094 151.800781 31.539062 151.308594 30.222656 150.855469 C 28.945312 150.429688 27.671875 150.085938 26.386719 149.808594 C 25.105469 149.53125 23.808594 149.320312 22.488281 149.144531 C 22.15625 149.089844 21.820312 149.050781 21.492188 149.023438 C 21.152344 149 20.816406 148.992188 20.480469 149 C 20.328125 149.003906 20.066406 148.929688 19.9375 148.933594 C 19.699219 148.941406 19.625 149.074219 19.5625 149.332031 C 19.359375 149.402344 19.597656 149.347656 19.414062 149.46875 C 19.34375 149.507812 19.382812 149.484375 19.367188 149.5625 C 19.304688 149.71875 19.480469 149.902344 19.609375 150.085938 C 19.953125 150.570312 20.710938 151.125 20.984375 151.375 L 25.414062 155.191406 C 27.871094 157.28125 30.304688 159.355469 32.964844 161.0625 C 33.867188 161.636719 34.804688 162.160156 35.757812 162.65625 C 36.710938 163.144531 37.671875 163.609375 38.710938 163.988281 C 41.21875 164.9375 44.101562 164.988281 46.753906 165.648438 C 47.082031 165.726562 47.390625 165.839844 47.710938 165.921875 C 47.789062 165.941406 47.878906 165.964844 47.96875 165.988281 C 49.761719 170.203125 51.320312 174.539062 53.089844 178.695312 C 54.847656 184.390625 56.566406 190.175781 58.371094 196.082031 C 61.109375 205.039062 65.191406 213.417969 70.292969 221.148438 C 68.242188 219.078125 66.230469 217.011719 64.324219 215.03125 C 60.753906 211.402344 57.238281 207.675781 53.921875 203.78125 C 53.035156 202.730469 52.164062 201.667969 51.292969 200.601562 C 49.441406 198.324219 47.898438 195.824219 46.050781 193.554688 C 46.996094 192.148438 46.429688 190.339844 45.199219 189.128906 C 43.789062 187.753906 41.675781 187.273438 40.414062 188.851562 C 39.339844 190.144531 39.660156 191.972656 40.640625 193.183594 C 40.917969 193.527344 41.242188 193.820312 41.59375 194.039062 C 42.050781 194.417969 42.636719 194.664062 43.246094 194.746094 C 43.890625 194.835938 44.554688 194.722656 45.117188 194.414062 C 46.796875 197.207031 48.644531 199.894531 50.628906 202.492188 C 54.382812 207.410156 58.601562 211.988281 62.832031 216.464844 C 64.136719 217.804688 65.449219 219.222656 66.804688 220.640625 L 66.582031 220.496094 C 65.527344 219.800781 64.476562 219.105469 63.414062 218.421875 C 62.617188 217.90625 61.8125 217.394531 61 216.902344 C 60.445312 216.570312 59.886719 216.246094 59.335938 215.929688 C 58.988281 215.738281 58.640625 215.550781 58.304688 215.363281 C 57.65625 215.019531 57.023438 214.679688 56.371094 214.355469 C 55.8125 214.074219 55.257812 213.808594 54.691406 213.550781 C 53.535156 213.023438 52.355469 212.539062 51.164062 212.09375 C 49.734375 211.554688 48.277344 211.078125 46.789062 210.691406 C 45.117188 210.25 43.421875 209.914062 41.699219 209.734375 C 41.558594 209.71875 41.414062 209.703125 41.269531 209.691406 C 41.195312 209.6875 41.128906 209.679688 41.050781 209.675781 C 40.796875 209.65625 40.546875 209.640625 40.292969 209.628906 C 39.769531 209.597656 39.234375 209.574219 38.714844 209.570312 C 38.410156 209.566406 38.117188 209.570312 37.816406 209.585938 C 37.570312 209.59375 37.324219 209.609375 37.078125 209.632812 C 36.96875 209.644531 36.855469 209.65625 36.746094 209.667969 C 36.671875 209.679688 36.597656 209.691406 36.523438 209.699219 C 36.386719 209.710938 36.246094 209.726562 36.101562 209.746094 C 35.898438 209.769531 35.695312 209.796875 35.5 209.84375 C 35.332031 209.878906 35.167969 209.925781 35.023438 210.027344 C 34.972656 210.0625 34.9375 210.105469 34.902344 210.15625 C 34.882812 210.171875 34.878906 210.1875 34.871094 210.207031 C 34.871094 210.214844 34.871094 210.21875 34.863281 210.222656 C 34.863281 210.226562 34.863281 210.230469 34.863281 210.230469 C 34.863281 210.230469 34.863281 210.230469 34.851562 210.234375 C 34.851562 210.238281 34.84375 210.242188 34.832031 210.246094 C 34.804688 210.261719 34.773438 210.285156 34.769531 210.316406 C 34.753906 210.355469 34.773438 210.390625 34.777344 210.425781 C 34.789062 210.480469 34.796875 210.535156 34.796875 210.589844 C 34.800781 210.621094 34.804688 210.652344 34.8125 210.683594 C 34.816406 210.707031 34.808594 210.734375 34.8125 210.757812 C 34.828125 210.777344 34.832031 210.796875 34.84375 210.8125 C 34.859375 210.828125 34.859375 210.84375 34.875 210.855469 C 34.949219 210.960938 35.039062 211.054688 35.128906 211.136719 C 35.285156 211.28125 35.457031 211.40625 35.640625 211.523438 C 35.863281 211.671875 36.09375 211.808594 36.320312 211.941406 C 36.40625 211.988281 36.492188 212.039062 36.585938 212.085938 C 36.621094 212.109375 36.660156 212.128906 36.695312 212.152344 C 38.917969 213.53125 41.152344 214.902344 43.378906 216.277344 C 43.414062 216.296875 43.441406 216.320312 43.476562 216.335938 C 43.535156 216.378906 43.597656 216.417969 43.660156 216.457031 C 43.816406 216.558594 43.964844 216.660156 44.125 216.761719 C 44.640625 217.109375 45.15625 217.464844 45.675781 217.824219 C 48.535156 219.804688 51.332031 221.894531 54.296875 223.722656 C 54.84375 224.070312 55.410156 224.402344 55.976562 224.726562 C 56.757812 225.15625 57.535156 225.570312 58.339844 225.953125 C 59.949219 226.742188 61.628906 227.425781 63.371094 227.90625 C 63.625 227.976562 63.875 228.039062 64.121094 228.101562 C 64.234375 228.128906 64.347656 228.15625 64.460938 228.179688 C 65.578125 228.421875 66.710938 228.53125 67.855469 228.570312 C 68.226562 228.582031 68.597656 228.589844 68.964844 228.589844 C 69.183594 228.589844 69.386719 228.589844 69.605469 228.589844 C 69.941406 228.589844 70.28125 228.617188 70.625 228.65625 C 71.101562 228.710938 71.589844 228.78125 72.074219 228.824219 C 72.625 228.875 73.179688 228.890625 73.722656 228.777344 C 73.878906 228.746094 74.023438 228.703125 74.167969 228.652344 C 74.207031 228.636719 74.25 228.621094 74.289062 228.605469 C 74.308594 228.59375 74.339844 228.582031 74.367188 228.566406 C 74.386719 228.554688 74.40625 228.535156 74.425781 228.515625 C 74.441406 228.488281 74.445312 228.457031 74.464844 228.429688 C 74.480469 228.394531 74.496094 228.367188 74.523438 228.34375 C 74.574219 228.308594 74.613281 228.28125 74.648438 228.257812 C 74.6875 228.234375 74.730469 228.214844 74.769531 228.195312 C 74.789062 228.183594 74.808594 228.171875 74.839844 228.15625 C 74.847656 228.152344 74.847656 228.148438 74.859375 228.144531 C 74.859375 228.144531 74.871094 228.144531 74.871094 228.148438 C 74.878906 228.148438 74.890625 228.148438 74.902344 228.144531 C 74.933594 228.140625 74.964844 228.132812 74.984375 228.125 L 74.996094 228.121094 C 75.234375 228.304688 75.480469 228.484375 75.730469 228.664062 C 79.277344 233.140625 83.160156 237.367188 87.34375 241.316406 C 94.265625 247.859375 101.953125 253.644531 110.085938 258.601562 C 110.324219 258.789062 110.566406 258.941406 110.820312 259.082031 C 110.894531 259.144531 110.976562 259.183594 111.066406 259.195312 C 116.574219 262.488281 122.273438 265.398438 128.058594 267.914062 C 127.359375 267.890625 126.664062 267.863281 125.957031 267.851562 L 125.78125 267.777344 C 125.195312 267.539062 124.558594 267.355469 123.953125 267.117188 C 123.707031 267.015625 123.460938 266.910156 123.242188 266.785156 L 120.863281 265.378906 C 119.347656 264.648438 117.78125 263.878906 116.207031 263.167969 C 115.144531 262.6875 114.070312 262.234375 112.992188 261.84375 C 111.90625 261.449219 110.824219 261.164062 109.734375 260.933594 C 108.125 260.589844 106.492188 260.375 104.820312 260.109375 C 103.90625 259.96875 103.019531 259.777344 102.105469 259.636719 C 101.703125 259.574219 101.292969 259.523438 100.875 259.488281 L 96.824219 259.378906 C 96.339844 259.335938 95.851562 259.265625 95.371094 259.175781 C 94.617188 259.03125 93.851562 258.855469 93.101562 258.714844 C 91.835938 258.492188 90.585938 258.335938 89.355469 258.050781 C 88.835938 257.9375 88.335938 257.804688 87.839844 257.628906 C 87.203125 257.402344 86.574219 257.160156 85.921875 256.964844 C 85.476562 256.832031 85.035156 256.71875 84.578125 256.644531 L 83.199219 256.441406 C 83.050781 256.414062 82.734375 256.277344 82.660156 256.28125 C 82.46875 256.289062 82.375 256.382812 82.316406 256.480469 C 82.277344 256.554688 82.195312 256.71875 82.363281 256.925781 C 82.6875 257.355469 83.070312 257.742188 83.449219 258.128906 C 84.320312 259 85.28125 259.804688 86.191406 260.605469 C 87.269531 261.5625 88.402344 262.460938 89.597656 263.265625 C 91.378906 264.476562 93.3125 265.484375 95.285156 266.351562 C 98.03125 267.546875 100.90625 268.4375 103.824219 269.023438 C 100.035156 269.164062 96.242188 269.214844 92.449219 269.101562 C 87.320312 268.953125 82.199219 268.558594 77.046875 267.789062 C 77.164062 265.792969 76.261719 263.855469 74.058594 263.476562 C 73.25 263.304688 72.042969 263.417969 71.03125 263.808594 C 70.25 264.113281 69.585938 264.589844 69.222656 265.179688 C 68.511719 266.320312 68.621094 267.878906 69.234375 269.21875 C 69.335938 269.425781 69.449219 269.625 69.570312 269.816406 C 69.769531 270.351562 70.097656 270.855469 70.519531 271.289062 C 70.941406 271.714844 71.421875 272.105469 71.9375 272.339844 C 72.421875 272.554688 72.949219 272.589844 73.523438 272.480469 C 74.023438 272.355469 74.480469 272.125 74.878906 271.800781 C 74.996094 271.726562 75.101562 271.648438 75.207031 271.566406 C 75.984375 270.9375 76.574219 269.976562 76.855469 268.925781 C 83.625 270.453125 90.457031 271.019531 97.277344 271.304688 C 102.191406 271.507812 107.121094 271.5 112.074219 271.261719 C 115.339844 271.101562 118.605469 270.816406 121.882812 270.519531 C 124.492188 270.265625 127.140625 270.582031 129.761719 270.390625 C 130.476562 270.339844 131.195312 270.292969 131.875 270.085938 C 132.140625 270.003906 132.375 269.902344 132.601562 269.792969 C 132.683594 269.828125 132.777344 269.855469 132.859375 269.890625 C 141.21875 273.128906 149.394531 275.828125 157.855469 277.105469 C 163.488281 277.957031 169.222656 278.152344 175.199219 277.628906 C 175.414062 277.617188 175.585938 277.429688 175.570312 277.210938 C 175.554688 276.996094 175.375 276.828125 175.148438 276.84375 C 169.257812 277.046875 163.640625 276.46875 158.136719 275.4375 C 156.738281 275.175781 155.335938 274.902344 153.957031 274.582031 C 147.125 273.019531 140.429688 270.679688 133.640625 267.914062 C 126.480469 265.042969 119.441406 261.539062 112.691406 257.457031 L 111.078125 255.25 C 110.492188 254.492188 110.070312 253.636719 109.699219 252.75 C 109.109375 251.316406 108.679688 249.792969 108.179688 248.351562 C 108.078125 248.085938 107.96875 247.820312 107.867188 247.554688 C 106.988281 244.714844 106.132812 241.859375 105.214844 239.03125 C 104.136719 235.730469 102.929688 232.488281 101.460938 229.375 C 98.464844 223.285156 94.828125 217.425781 91.808594 211.320312 C 90.601562 208.902344 89.550781 206.425781 88.578125 203.910156 C 88.457031 203.585938 88.324219 203.269531 88.203125 202.949219 C 88.339844 202.863281 88.464844 202.769531 88.601562 202.667969 C 89.179688 202.210938 89.652344 201.621094 89.898438 200.929688 C 90.3125 199.761719 90.140625 198.476562 89.53125 197.476562 C 88.90625 196.441406 87.835938 195.699219 86.515625 195.667969 C 86.203125 195.65625 85.417969 195.832031 84.667969 196.128906 C 84.011719 196.023438 83.523438 196.398438 83.195312 196.996094 C 82.960938 197.210938 82.785156 197.433594 82.691406 197.644531 C 82.246094 198.628906 82.335938 200.3125 82.953125 201.621094 C 83.4375 202.652344 84.253906 203.402344 85.238281 203.636719 C 85.5625 203.707031 85.878906 203.703125 86.179688 203.636719 C 86.363281 203.625 86.542969 203.601562 86.730469 203.558594 C 86.800781 203.542969 86.875 203.523438 86.9375 203.503906 C 86.980469 203.6875 87.023438 203.867188 87.074219 204.046875 C 87.519531 205.71875 88.128906 207.335938 88.769531 208.945312 C 90.234375 212.613281 92.007812 216.167969 93.828125 219.703125 C 93.203125 219.035156 92.550781 218.40625 91.859375 217.816406 C 90.984375 217.074219 90.042969 216.410156 89.027344 215.742188 C 88.730469 215.542969 87.933594 214.757812 87.171875 214.484375 C 86.660156 214.304688 86.234375 214.285156 85.945312 214.476562 C 85.902344 214.488281 85.777344 214.566406 85.746094 214.757812 C 85.714844 214.960938 85.71875 215.472656 85.722656 215.554688 L 85.660156 218.425781 C 85.664062 219.542969 85.75 220.675781 85.917969 221.796875 C 86.15625 223.46875 86.542969 225.128906 86.976562 226.734375 C 88.085938 230.722656 89.609375 234.59375 91.542969 238.253906 C 92.96875 240.960938 94.597656 243.566406 96.472656 245.992188 C 95.28125 245.007812 94.097656 244.003906 92.945312 242.980469 C 91.386719 240.648438 89.984375 238.160156 88.105469 236.136719 C 86.914062 234.910156 85.648438 233.746094 84.308594 232.652344 C 82.621094 231.257812 80.84375 229.964844 79.128906 228.632812 C 72.121094 220.015625 66.453125 210.410156 62.667969 199.949219 C 63.992188 198.226562 65.542969 196.636719 66.90625 194.898438 C 67.574219 194.054688 68.179688 193.179688 68.699219 192.25 C 69.128906 191.484375 69.523438 190.714844 69.882812 189.925781 C 70.71875 188.074219 71.359375 186.152344 71.894531 184.214844 C 72.582031 181.75 73.105469 179.242188 73.550781 176.703125 C 73.84375 175.042969 74.082031 173.371094 74.363281 171.695312 C 74.636719 169.984375 74.9375 168.292969 75.210938 166.589844 C 75.402344 165.445312 75.582031 164.300781 75.714844 163.140625 C 75.78125 162.59375 76.027344 161.585938 76.011719 160.753906 C 75.996094 160.191406 75.855469 159.695312 75.609375 159.34375 C 75.398438 159.0625 75.144531 158.96875 74.914062 158.949219 C 74.703125 158.929688 74.472656 158.980469 74.242188 159.144531 C 74.050781 159.285156 73.792969 159.738281 73.601562 159.933594 L 72.832031 160.742188 C 72.003906 161.695312 71.230469 162.738281 70.511719 163.828125 C 69.800781 164.90625 69.152344 166.027344 68.570312 167.148438 C 67.21875 169.820312 66.101562 172.550781 65.148438 175.332031 C 64.667969 176.726562 64.230469 178.128906 63.816406 179.550781 C 63.820312 179.261719 63.824219 178.976562 63.828125 178.691406 C 63.847656 172.738281 63.4375 166.921875 62.640625 161.152344 C 62.132812 157.4375 61.484375 153.742188 60.695312 150.039062 C 59.945312 146.5 59.105469 142.949219 58.121094 139.382812 C 58.210938 139.335938 58.300781 139.285156 58.398438 139.226562 C 59.972656 138.191406 60.117188 136.113281 59.316406 134.570312 C 59.074219 134.121094 58.769531 133.726562 58.410156 133.417969 C 57.515625 132.457031 56.191406 132.125 54.71875 133.195312 C 53.492188 134.097656 53.199219 135.597656 53.554688 136.933594 C 53.566406 137.367188 53.660156 137.777344 53.828125 138.132812 C 54.117188 138.71875 54.609375 139.179688 55.324219 139.378906 C 55.734375 139.609375 56.191406 139.746094 56.679688 139.75 C 56.863281 140.792969 57.074219 141.820312 57.257812 142.855469 C 57.695312 145.21875 58.105469 147.566406 58.503906 149.90625 C 58.769531 151.476562 59.042969 153.039062 59.304688 154.601562 C 59.949219 158.523438 60.515625 162.433594 60.933594 166.375 C 61.417969 170.921875 61.667969 175.503906 61.75 180.1875 C 61.78125 182.148438 61.832031 184.125 61.792969 186.125 C 61.773438 186.675781 61.726562 187.21875 61.667969 187.757812 C 61.613281 187.992188 61.554688 188.226562 61.511719 188.460938 C 61.28125 189.507812 61.097656 190.5625 60.9375 191.617188 C 60.8125 192.21875 60.683594 192.824219 60.570312 193.429688 C 56.71875 180.527344 53.285156 168.179688 48.640625 156.136719 C 46.035156 149.386719 43.050781 142.734375 39.433594 136.125 C 39.5 136.027344 39.570312 135.917969 39.628906 135.8125 C 39.726562 135.636719 39.800781 135.449219 39.878906 135.261719 C 40.457031 133.875 40.703125 132.253906 41.066406 130.925781 C 41.304688 129.875 41.535156 128.832031 41.777344 127.804688 C 42.160156 126.203125 42.566406 124.628906 42.738281 123.015625 C 42.921875 121.226562 42.875 119.402344 42.5 117.507812 C 42.363281 116.851562 42.191406 116.183594 42 115.519531 C 41.808594 114.855469 41.582031 114.203125 41.355469 113.570312 C 41.355469 113.570312 40.304688 111.164062 40.304688 111.164062 L 39.648438 109.96875 L 39.109375 109.230469 C 38.441406 108.507812 37.992188 108.492188 37.652344 108.527344 C 37.472656 108.542969 37.367188 108.558594 37.175781 108.660156 C 37.128906 108.683594 37.105469 108.734375 37.058594 108.777344 C 36.761719 109.078125 36.503906 109.636719 36.199219 110.199219 C 35.898438 110.886719 35.660156 111.578125 35.460938 112.285156 C 35.183594 113.308594 35 114.355469 34.761719 115.410156 L 34.386719 117.042969 C 34.175781 118.117188 34.035156 119.230469 33.960938 120.351562 C 33.949219 120.550781 33.941406 120.753906 33.925781 120.957031 C 33.886719 120.679688 33.828125 120.40625 33.769531 120.136719 C 33.457031 118.667969 33.023438 117.234375 32.496094 115.828125 C 31.320312 112.660156 29.757812 109.558594 27.519531 106.605469 C 27.25 106.242188 26.960938 105.890625 26.648438 105.542969 C 26.808594 105.222656 26.945312 104.871094 27.03125 104.507812 C 27.332031 103.25 27.164062 101.847656 26.484375 100.828125 C 26.25 100.46875 25.914062 99.972656 25.496094 99.628906 C 25.316406 99.476562 25.128906 99.34375 24.929688 99.25 C 24.554688 98.976562 24.070312 98.679688 23.621094 98.523438 C 23.171875 98.375 22.738281 98.371094 22.359375 98.492188 C 20.808594 98.988281 19.855469 100.417969 19.613281 101.929688 C 19.304688 103.089844 19.507812 104.363281 20.074219 105.378906 C 20.390625 105.941406 20.824219 106.425781 21.347656 106.765625 C 21.566406 106.898438 21.792969 107.011719 22.023438 107.101562 C 22.746094 107.621094 23.601562 107.808594 24.5 107.492188 C 24.976562 107.3125 25.40625 107.042969 25.769531 106.707031 C 25.835938 106.839844 25.914062 106.96875 25.992188 107.097656 C 27.582031 109.867188 28.890625 112.515625 29.917969 115.234375 C 30.53125 116.859375 31.023438 118.5 31.558594 120.132812 C 31.925781 121.238281 32.390625 122.292969 32.71875 123.421875 C 32.980469 124.277344 33.207031 125.148438 33.414062 126.03125 C 32.4375 124.527344 31.464844 123.121094 30.4375 121.847656 C 28.683594 119.683594 26.808594 117.878906 24.644531 116.542969 C 23.515625 115.851562 22.328125 115.265625 21.011719 114.859375 C 18.753906 114.152344 16.195312 113.910156 13.199219 114.1875 C 13.085938 113.046875 12.429688 111.894531 11.679688 111.148438 C 10.734375 110.199219 9.070312 110.363281 8.355469 111.527344 C 8.339844 111.5625 8.3125 111.597656 8.296875 111.632812 C 7.964844 111.84375 7.675781 112.101562 7.472656 112.433594 C 5.480469 115.648438 11.066406 119.640625 12.960938 115.730469 C 12.972656 115.6875 13 115.644531 13.011719 115.601562 Z M 84.164062 257.433594 C 85.109375 258.015625 86.0625 258.632812 87.09375 259.136719 C 88.96875 260.0625 90.96875 260.824219 92.808594 261.558594 C 96.140625 262.882812 99.570312 263.980469 103.074219 264.855469 C 106.566406 265.730469 110.125 266.382812 113.679688 266.824219 L 121.050781 267.6875 C 121.648438 267.761719 122.285156 267.800781 122.914062 267.867188 C 123.183594 267.855469 123.460938 267.847656 123.730469 267.84375 C 123.710938 267.839844 123.699219 267.832031 123.6875 267.824219 C 123.410156 267.726562 123.128906 267.617188 122.867188 267.484375 L 120.496094 266.195312 C 118.960938 265.53125 117.371094 264.820312 115.777344 264.1875 C 114.714844 263.765625 113.652344 263.378906 112.597656 263.054688 C 111.542969 262.730469 110.507812 262.515625 109.472656 262.347656 C 107.867188 262.085938 106.25 261.953125 104.59375 261.769531 L 100.753906 261.316406 C 99.808594 261.246094 98.871094 261.277344 97.933594 261.246094 C 97.496094 261.230469 97.070312 261.199219 96.636719 261.144531 C 96.105469 261.078125 95.566406 260.976562 95.027344 260.855469 C 94.269531 260.683594 93.515625 260.46875 92.769531 260.292969 C 91.683594 260.019531 90.605469 259.808594 89.542969 259.503906 C 88.8125 259.292969 88.085938 259.042969 87.390625 258.714844 C 86.796875 258.433594 86.207031 258.140625 85.597656 257.890625 C 85.210938 257.730469 84.808594 257.589844 84.398438 257.484375 Z M 85.082031 258.65625 C 85.636719 259.097656 86.207031 259.511719 86.746094 259.941406 C 87.855469 260.808594 89.011719 261.59375 90.203125 262.335938 C 91.96875 263.453125 93.824219 264.453125 95.746094 265.285156 C 98.96875 266.667969 102.367188 267.636719 105.8125 268.167969 C 106.996094 268.378906 108.382812 268.621094 109.792969 268.742188 L 109.972656 268.730469 C 112.882812 268.566406 115.789062 268.394531 118.699219 268.175781 L 113.589844 267.542969 C 110.007812 267.074219 106.429688 266.390625 102.914062 265.484375 C 99.394531 264.578125 95.933594 263.449219 92.585938 262.089844 C 90.742188 261.339844 88.734375 260.574219 86.851562 259.609375 C 86.257812 259.304688 85.660156 258.996094 85.082031 258.65625 Z M 87.144531 215.8125 C 87.171875 215.855469 87.191406 215.894531 87.207031 215.9375 C 88.65625 218.390625 89.960938 220.957031 91.179688 223.574219 C 93.199219 227.917969 94.949219 232.414062 96.683594 236.796875 C 98.246094 240.765625 100.085938 244.972656 102.585938 248.648438 C 103.550781 250.074219 104.601562 251.433594 105.789062 252.644531 C 106.125 252.820312 106.464844 252.984375 106.808594 253.136719 C 106.890625 253.179688 107 253.1875 107.058594 253.265625 C 107.25 253.511719 107.078125 253.382812 107.132812 253.6875 C 107.210938 253.710938 107.257812 253.789062 107.238281 253.867188 C 107.230469 253.878906 107.222656 253.890625 107.222656 253.898438 C 107.296875 253.960938 107.375 254.023438 107.449219 254.082031 C 106.992188 252.882812 106.609375 251.695312 106.265625 250.730469 C 105.972656 249.851562 105.667969 249.042969 105.507812 248.1875 C 105.472656 248.058594 105.449219 247.933594 105.4375 247.800781 C 105.328125 247.476562 105.226562 247.148438 105.125 246.828125 L 104.964844 246.328125 C 104.582031 245.207031 104.210938 244.078125 103.839844 242.949219 C 102.589844 239.214844 101.207031 235.398438 99.449219 231.804688 C 98.683594 230.210938 97.796875 228.683594 96.886719 227.195312 C 95.964844 225.707031 94.996094 224.257812 93.882812 222.921875 C 92.992188 221.785156 92.097656 220.761719 91.164062 219.765625 C 90.238281 218.765625 89.296875 217.785156 88.199219 216.832031 C 88.007812 216.667969 87.605469 216.222656 87.144531 215.8125 Z M 86.378906 215.160156 C 86.324219 215.105469 86.285156 215.054688 86.246094 215.019531 L 86.253906 215.554688 L 86.351562 218.410156 C 86.402344 219.492188 86.546875 220.578125 86.757812 221.652344 C 87.085938 223.273438 87.550781 224.871094 88.046875 226.417969 C 89.257812 230.28125 90.863281 234.015625 92.855469 237.535156 C 94.445312 240.34375 96.285156 242.996094 98.316406 245.507812 C 98.828125 246.132812 99.339844 246.753906 99.867188 247.363281 C 100.894531 248.578125 101.996094 249.804688 103.222656 250.867188 C 103.324219 250.953125 103.417969 251.039062 103.519531 251.121094 C 102.988281 250.449219 102.488281 249.753906 102.003906 249.039062 C 99.507812 245.304688 97.644531 241.054688 96.0625 237.039062 C 94.632812 233.386719 93.179688 229.664062 91.585938 226.007812 C 90.144531 222.726562 88.582031 219.503906 86.839844 216.429688 C 86.699219 216.1875 86.519531 215.964844 86.429688 215.703125 C 86.375 215.578125 86.378906 215.464844 86.355469 215.332031 C 86.324219 215.273438 86.332031 215.207031 86.378906 215.160156 Z M 83.253906 233.4375 C 85.132812 235.507812 87.089844 237.515625 89.109375 239.457031 C 89.367188 239.695312 89.613281 239.933594 89.863281 240.175781 C 89.039062 239.058594 88.175781 237.980469 87.199219 237.03125 C 86.316406 236.140625 85.367188 235.304688 84.429688 234.46875 C 84.042969 234.121094 83.648438 233.777344 83.253906 233.4375 Z M 61.59375 196.785156 C 61.765625 197.332031 61.945312 197.871094 62.125 198.410156 C 63.214844 196.886719 64.429688 195.417969 65.5 193.859375 C 66.042969 193.058594 66.558594 192.230469 66.980469 191.355469 C 67.347656 190.609375 67.660156 189.855469 67.972656 189.105469 C 68.722656 187.308594 69.347656 185.496094 69.855469 183.648438 C 70.519531 181.246094 71.011719 178.789062 71.488281 176.324219 C 71.804688 174.671875 72.144531 173.011719 72.46875 171.351562 C 72.8125 169.65625 73.191406 167.980469 73.511719 166.292969 C 73.574219 165.960938 73.636719 165.628906 73.695312 165.292969 C 72.992188 167.160156 72.257812 169.019531 71.578125 170.894531 C 69.519531 176.519531 67.5625 182.191406 65.472656 187.8125 C 64.472656 190.511719 63.09375 193.113281 61.980469 195.789062 C 61.84375 196.117188 61.71875 196.453125 61.59375 196.785156 Z M 61.625 195.054688 C 62.671875 192.550781 63.921875 190.109375 64.84375 187.578125 C 66.457031 183.105469 68.046875 178.628906 69.574219 174.125 C 70.113281 172.507812 70.664062 170.882812 71.179688 169.253906 C 71.800781 167.289062 72.332031 165.296875 72.941406 163.332031 C 72.597656 163.796875 72.261719 164.277344 71.945312 164.765625 C 71.28125 165.800781 70.667969 166.871094 70.128906 167.9375 C 68.785156 170.535156 67.6875 173.179688 66.730469 175.882812 C 65.765625 178.597656 64.9375 181.371094 64.167969 184.199219 C 63.816406 185.472656 63.476562 186.761719 63.140625 188.058594 C 63.042969 188.609375 62.921875 189.152344 62.789062 189.695312 C 62.59375 190.496094 62.386719 191.296875 62.167969 192.09375 C 62.046875 192.703125 61.9375 193.316406 61.828125 193.925781 C 61.753906 194.304688 61.691406 194.679688 61.625 195.054688 Z M 56.742188 135.398438 C 56.792969 135.386719 56.847656 135.386719 56.894531 135.394531 C 56.867188 135.363281 56.828125 135.339844 56.773438 135.328125 C 56.738281 135.324219 56.746094 135.371094 56.742188 135.398438 Z M 56.589844 135.324219 C 56.582031 135.34375 56.582031 135.355469 56.585938 135.363281 C 56.585938 135.375 56.597656 135.378906 56.609375 135.378906 C 56.640625 135.375 56.613281 135.351562 56.589844 135.324219 Z M 36.277344 210.460938 C 37.664062 210.582031 39.039062 210.746094 40.390625 210.984375 C 42.851562 211.414062 45.269531 212.050781 47.640625 212.828125 C 51.582031 214.121094 55.367188 215.867188 58.929688 218.0625 C 61.578125 219.703125 64.191406 221.457031 66.890625 223.050781 C 68.046875 223.730469 69.214844 224.378906 70.394531 224.984375 C 71 225.289062 71.585938 225.605469 72.1875 225.894531 C 71.550781 225.347656 70.941406 224.78125 70.332031 224.203125 C 66.3125 222.042969 62.523438 219.34375 58.476562 217.28125 C 57.1875 216.601562 55.8125 215.941406 54.40625 215.273438 C 52.398438 214.316406 50.304688 213.382812 48.175781 212.609375 C 45.769531 211.734375 43.328125 211.039062 40.941406 210.722656 C 40.074219 210.589844 39.214844 210.460938 38.347656 210.394531 C 37.777344 210.351562 37.210938 210.332031 36.640625 210.359375 C 36.597656 210.363281 36.453125 210.410156 36.277344 210.460938 Z M 36.820312 210.941406 C 36.953125 211.019531 37.074219 211.101562 37.207031 211.179688 C 37.292969 211.226562 37.375 211.273438 37.460938 211.324219 C 37.53125 211.363281 37.605469 211.402344 37.675781 211.445312 C 37.929688 211.585938 38.179688 211.726562 38.433594 211.867188 C 39.261719 212.332031 40.082031 212.804688 40.894531 213.296875 C 41.597656 213.726562 42.292969 214.175781 42.992188 214.628906 C 43.578125 215.015625 44.167969 215.410156 44.75 215.8125 C 45.476562 216.316406 46.195312 216.835938 46.90625 217.359375 C 49.378906 219.164062 51.808594 221.035156 54.386719 222.699219 C 55.046875 223.132812 55.726562 223.550781 56.417969 223.953125 C 57.320312 224.472656 58.238281 224.960938 59.191406 225.386719 C 60.628906 226.039062 62.128906 226.550781 63.664062 226.910156 C 64.027344 226.996094 64.386719 227.074219 64.753906 227.136719 C 65.289062 227.226562 65.832031 227.28125 66.378906 227.3125 C 67.375 227.371094 68.367188 227.351562 69.367188 227.300781 C 70.3125 227.253906 71.242188 227.183594 72.1875 227.132812 L 72.261719 227.128906 C 71.46875 226.746094 70.710938 226.300781 69.929688 225.875 C 68.351562 225.019531 66.808594 224.082031 65.277344 223.117188 C 62.996094 221.683594 60.761719 220.175781 58.496094 218.746094 C 55.019531 216.539062 51.296875 214.78125 47.425781 213.457031 C 45.097656 212.660156 42.703125 212.046875 40.292969 211.542969 C 39.113281 211.300781 37.925781 211.074219 36.734375 210.890625 Z M 37.496094 132.691406 C 37.980469 133.53125 38.464844 134.371094 38.925781 135.214844 C 39.027344 134.9375 39.121094 134.652344 39.199219 134.363281 C 39.535156 133.121094 39.691406 131.789062 39.925781 130.65625 C 40.1875 129.613281 40.472656 128.585938 40.695312 127.558594 C 41.039062 126.003906 41.246094 124.453125 41.363281 122.894531 C 41.480469 121.226562 41.457031 119.542969 41.085938 117.792969 C 40.976562 117.164062 40.832031 116.519531 40.675781 115.878906 C 40.507812 115.242188 40.332031 114.609375 40.128906 114 L 39.238281 111.632812 L 38.976562 111.015625 C 38.976562 111.085938 38.980469 111.15625 38.992188 111.222656 C 39.015625 111.917969 39.074219 112.613281 39.054688 113.316406 C 39.03125 115.394531 38.738281 117.507812 38.65625 119.507812 C 38.460938 123.09375 38.375 126.6875 37.835938 130.234375 C 37.71875 131.046875 37.648438 131.882812 37.496094 132.691406 Z M 35.875 129.988281 C 36.148438 130.433594 36.421875 130.882812 36.699219 131.339844 C 36.730469 131.40625 36.773438 131.46875 36.816406 131.535156 C 36.867188 131.1875 36.914062 130.839844 36.960938 130.492188 C 37.121094 129.359375 37.257812 128.230469 37.371094 127.089844 C 37.613281 124.558594 37.75 122.011719 37.921875 119.46875 C 38.089844 117.140625 38.558594 114.679688 38.546875 112.277344 C 38.550781 111.867188 38.554688 111.457031 38.507812 111.054688 C 38.429688 110.488281 38.28125 109.941406 38.109375 109.394531 C 38.066406 109.347656 38.027344 109.308594 37.988281 109.273438 C 37.933594 109.214844 37.898438 109.136719 37.851562 109.160156 C 37.789062 109.191406 37.90625 109.289062 37.867188 109.375 C 37.75 109.703125 37.652344 110.1875 37.535156 110.707031 C 37.382812 111.191406 37.261719 111.679688 37.152344 112.167969 C 36.871094 113.351562 36.691406 114.542969 36.46875 115.753906 C 36.46875 115.753906 36.117188 117.402344 36.117188 117.402344 C 35.894531 118.402344 35.75 119.4375 35.652344 120.484375 C 35.566406 121.535156 35.523438 122.59375 35.53125 123.625 C 35.546875 124.589844 35.59375 125.539062 35.640625 126.480469 C 35.699219 127.441406 35.757812 128.390625 35.828125 129.34375 C 35.84375 129.558594 35.859375 129.773438 35.875 129.988281 Z M 22.003906 150.574219 C 23.144531 151.519531 24.320312 152.414062 25.441406 153.382812 C 25.738281 153.640625 26.023438 153.914062 26.308594 154.183594 C 28.628906 156.355469 30.898438 158.546875 33.464844 160.316406 C 34.3125 160.902344 35.203125 161.453125 36.140625 161.914062 C 37.050781 162.367188 38.023438 162.71875 39.03125 163.023438 C 41.257812 163.667969 43.726562 163.589844 46.082031 163.871094 C 43.660156 161.914062 41.222656 159.933594 38.609375 158.199219 C 35.347656 156.035156 31.914062 154.136719 28.402344 152.53125 C 27.648438 152.1875 26.839844 151.898438 26.023438 151.632812 C 24.707031 151.222656 23.339844 150.898438 22.003906 150.574219 Z M 43.617188 160.449219 C 42.878906 159.808594 42.121094 159.191406 41.34375 158.597656 C 40.53125 157.980469 39.710938 157.375 38.863281 156.808594 C 37.15625 155.667969 35.355469 154.660156 33.523438 153.742188 C 32.289062 153.121094 31.035156 152.53125 29.785156 152.003906 C 28.589844 151.496094 27.378906 151.074219 26.15625 150.710938 C 24.910156 150.351562 23.664062 150.042969 22.382812 149.777344 C 22.070312 149.722656 21.757812 149.679688 21.441406 149.65625 C 21.15625 149.632812 20.871094 149.621094 20.578125 149.625 C 20.589844 149.628906 20.589844 149.632812 20.59375 149.636719 C 20.644531 149.628906 20.699219 149.625 20.753906 149.628906 C 22.019531 149.691406 23.277344 150.183594 24.550781 150.507812 C 25.988281 150.878906 27.398438 151.320312 28.691406 151.894531 C 32.261719 153.46875 35.71875 155.382812 39.066406 157.480469 C 40.601562 158.445312 42.128906 159.421875 43.617188 160.449219 Z M 42.246094 190.210938 C 42.3125 190.152344 42.378906 190.097656 42.445312 190.054688 C 42.402344 190.0625 42.363281 190.070312 42.320312 190.089844 L 42.300781 190.097656 C 42.285156 190.132812 42.261719 190.171875 42.246094 190.210938 Z M 24.074219 103.03125 C 24.078125 103.046875 24.070312 103.0625 24.082031 103.074219 C 24.085938 103.085938 24.105469 103.085938 24.117188 103.085938 C 24.160156 103.082031 24.132812 103.050781 24.074219 103.03125 Z M 8.296875 111.632812 C 7.945312 112.277344 7.863281 113.125 8.015625 113.914062 C 8.007812 113.578125 8.039062 113.242188 8.109375 112.90625 L 9.066406 113.359375 C 9.21875 112.574219 9.789062 111.808594 10.640625 111.640625 C 11.132812 111.546875 11.640625 112.089844 11.917969 112.433594 C 12.015625 112.558594 12.101562 112.695312 12.160156 112.84375 C 12.214844 112.949219 12.242188 113.0625 12.285156 113.171875 C 12.367188 113.53125 12.371094 113.917969 12.285156 114.289062 L 12.328125 114.28125 C 12.347656 114.28125 12.378906 114.273438 12.402344 114.273438 L 12.476562 114.265625 C 12.457031 113.902344 12.390625 113.53125 12.285156 113.171875 C 12.253906 113.058594 12.210938 112.949219 12.160156 112.84375 C 11.824219 111.972656 11.238281 111.226562 10.511719 110.96875 C 9.78125 110.707031 8.902344 111.246094 8.316406 111.621094 C 8.308594 111.625 8.296875 111.628906 8.296875 111.632812 Z M 8.015625 113.914062 C 8.027344 114.792969 8.328125 115.640625 9.046875 116.277344 C 9.765625 116.925781 11.554688 116.667969 12.109375 115.8125 C 12.148438 115.746094 12.191406 115.675781 12.222656 115.605469 C 12.179688 115.605469 12.136719 115.605469 12.09375 115.605469 C 11.933594 115.621094 11.785156 115.570312 11.660156 115.480469 C 11.53125 115.609375 11.398438 115.71875 11.242188 115.8125 C 9.503906 116.835938 8.300781 115.496094 8.015625 113.914062 Z M 9.066406 113.359375 C 8.890625 114.289062 9.300781 115.246094 10.539062 115.28125 C 12.152344 115.332031 11.234375 113.046875 10.152344 112.757812 C 9.890625 112.6875 9.867188 113.226562 9.78125 113.484375 C 9.769531 113.539062 9.757812 113.605469 9.738281 113.679688 Z M 9.738281 113.679688 C 9.628906 114.347656 9.761719 115.589844 10.671875 114.925781 C 10.855469 114.792969 11.085938 114.554688 11.242188 114.390625 Z M 9.738281 113.679688 " fill-opacity="1" fill-rule="evenodd"/></g></g></g><g clip-path="url(#fb909f14e3)"><g clip-path="url(#3c7ff0f3ac)"><g clip-path="url(#f2a99bf5f7)"><path fill="#3d737f" d="M 361.027344 127.058594 C 358.199219 126.894531 355.816406 127.234375 353.699219 127.914062 C 352.574219 128.28125 351.535156 128.742188 350.542969 129.3125 C 348.578125 130.457031 346.875 132.03125 345.234375 133.894531 C 343.039062 136.394531 340.964844 139.414062 338.695312 142.75 C 338.355469 143.230469 338.023438 143.714844 337.707031 144.199219 C 337.429688 145.304688 337.140625 146.421875 336.847656 147.558594 C 336.828125 147.636719 336.75 147.6875 336.664062 147.671875 C 336.59375 147.65625 336.535156 147.574219 336.554688 147.496094 C 336.679688 146.773438 336.800781 146.0625 336.933594 145.363281 C 332.675781 151.847656 329.125 158.425781 325.941406 165.109375 C 326.183594 164.710938 326.425781 164.308594 326.6875 163.917969 C 327.761719 162.316406 328.96875 160.773438 330.273438 159.292969 C 332.09375 157.238281 334.113281 155.308594 336.21875 153.484375 C 337.730469 152.183594 339.285156 150.933594 340.875 149.761719 C 342.871094 148.289062 344.894531 146.917969 346.914062 145.648438 C 346.824219 145.257812 346.78125 144.859375 346.792969 144.46875 C 346.808594 143.433594 347.195312 142.488281 348.007812 141.878906 C 348.640625 141.417969 349.238281 141.1875 349.851562 141.097656 C 350.21875 141.046875 350.582031 141.046875 350.957031 141.078125 C 351.226562 141.0625 351.507812 141.085938 351.808594 141.148438 C 351.964844 141.183594 352.109375 141.222656 352.242188 141.269531 C 352.398438 141.296875 352.546875 141.324219 352.691406 141.367188 C 352.96875 141.449219 353.21875 141.578125 353.394531 141.726562 C 354.769531 142.863281 354.824219 144.765625 354.082031 146.199219 C 353.804688 146.746094 353.402344 147.214844 352.921875 147.554688 C 351.710938 148.917969 349.78125 149.421875 348.191406 148.027344 C 347.917969 147.765625 347.652344 147.417969 347.441406 147.023438 C 345.554688 148.421875 343.648438 149.890625 341.777344 151.441406 C 339.546875 153.289062 337.355469 155.242188 335.304688 157.292969 C 333.460938 159.125 331.726562 161.042969 330.136719 163.019531 C 329.054688 164.363281 328.011719 165.714844 327.101562 167.128906 C 326.875 167.460938 326.648438 167.792969 326.433594 168.128906 C 327.175781 167.527344 327.933594 166.960938 328.726562 166.429688 C 329.621094 165.839844 330.546875 165.304688 331.496094 164.804688 C 333.371094 163.804688 335.324219 162.945312 337.328125 162.238281 C 338.667969 161.765625 340.03125 161.371094 341.375 161.011719 C 342.679688 160.675781 343.972656 160.421875 345.273438 160.234375 C 346.574219 160.050781 347.878906 159.929688 349.207031 159.851562 C 349.546875 159.820312 349.882812 159.800781 350.210938 159.800781 C 350.550781 159.800781 350.890625 159.816406 351.222656 159.847656 C 351.371094 159.859375 351.640625 159.804688 351.769531 159.816406 C 352.003906 159.839844 352.070312 159.980469 352.113281 160.242188 C 352.3125 160.328125 352.078125 160.253906 352.253906 160.386719 C 352.320312 160.433594 352.28125 160.410156 352.296875 160.484375 C 352.34375 160.644531 352.160156 160.816406 352.015625 160.992188 C 351.636719 161.449219 350.839844 161.949219 350.554688 162.179688 L 345.867188 165.671875 C 343.265625 167.585938 340.691406 169.484375 337.917969 170.996094 C 336.976562 171.507812 336.003906 171.964844 335.019531 172.390625 C 334.035156 172.808594 333.042969 173.207031 331.980469 173.511719 C 329.410156 174.28125 326.535156 174.128906 323.839844 174.601562 C 323.507812 174.65625 323.191406 174.742188 322.867188 174.800781 C 322.785156 174.820312 322.695312 174.835938 322.601562 174.851562 C 320.519531 178.929688 318.65625 183.144531 316.597656 187.167969 C 314.445312 192.722656 312.320312 198.371094 310.105469 204.140625 C 306.738281 212.878906 302.078125 220.949219 296.441406 228.296875 C 298.636719 226.378906 300.785156 224.457031 302.828125 222.617188 C 306.648438 219.253906 310.417969 215.78125 314 212.132812 C 314.957031 211.148438 315.902344 210.148438 316.84375 209.144531 C 318.851562 207.003906 320.566406 204.621094 322.574219 202.484375 C 321.726562 201.015625 322.421875 199.253906 323.734375 198.132812 C 325.238281 196.859375 327.378906 196.527344 328.527344 198.191406 C 329.507812 199.558594 329.058594 201.359375 327.992188 202.5 C 327.691406 202.820312 327.351562 203.089844 326.984375 203.28125 C 326.5 203.628906 325.902344 203.832031 325.285156 203.871094 C 324.636719 203.917969 323.984375 203.753906 323.441406 203.40625 C 321.570312 206.074219 319.535156 208.625 317.375 211.074219 C 313.28125 215.71875 308.753906 219.988281 304.21875 224.15625 C 302.816406 225.398438 301.410156 226.722656 299.960938 228.039062 L 300.191406 227.910156 C 301.289062 227.292969 302.390625 226.671875 303.5 226.066406 C 304.328125 225.609375 305.167969 225.15625 306.011719 224.722656 C 306.589844 224.429688 307.167969 224.144531 307.742188 223.867188 C 308.101562 223.699219 308.460938 223.539062 308.8125 223.375 C 309.480469 223.078125 310.136719 222.78125 310.808594 222.503906 C 311.386719 222.265625 311.960938 222.039062 312.542969 221.820312 C 313.730469 221.378906 314.941406 220.976562 316.164062 220.617188 C 317.625 220.183594 319.117188 219.808594 320.628906 219.527344 C 322.324219 219.203125 324.039062 218.988281 325.769531 218.933594 C 325.914062 218.925781 326.058594 218.921875 326.203125 218.921875 C 326.277344 218.917969 326.34375 218.917969 326.421875 218.917969 C 326.675781 218.917969 326.925781 218.921875 327.179688 218.925781 C 327.707031 218.933594 328.242188 218.945312 328.761719 218.976562 C 329.0625 219 329.355469 219.023438 329.65625 219.054688 C 329.902344 219.085938 330.144531 219.117188 330.386719 219.160156 C 330.496094 219.175781 330.609375 219.199219 330.714844 219.21875 C 330.789062 219.230469 330.859375 219.246094 330.933594 219.261719 C 331.070312 219.285156 331.210938 219.308594 331.355469 219.339844 C 331.554688 219.375 331.753906 219.417969 331.949219 219.476562 C 332.113281 219.523438 332.273438 219.582031 332.410156 219.695312 C 332.457031 219.734375 332.488281 219.777344 332.519531 219.832031 C 332.539062 219.851562 332.542969 219.867188 332.550781 219.886719 C 332.546875 219.890625 332.546875 219.894531 332.558594 219.902344 C 332.554688 219.90625 332.554688 219.90625 332.554688 219.910156 C 332.554688 219.910156 332.554688 219.910156 332.566406 219.914062 C 332.566406 219.917969 332.574219 219.921875 332.582031 219.925781 C 332.613281 219.945312 332.640625 219.96875 332.640625 220 C 332.65625 220.039062 332.636719 220.074219 332.625 220.109375 C 332.613281 220.164062 332.597656 220.21875 332.597656 220.273438 C 332.589844 220.304688 332.582031 220.335938 332.574219 220.367188 C 332.566406 220.390625 332.574219 220.414062 332.566406 220.4375 C 332.550781 220.457031 332.546875 220.476562 332.53125 220.488281 C 332.515625 220.503906 332.511719 220.519531 332.5 220.535156 C 332.417969 220.632812 332.320312 220.71875 332.226562 220.792969 C 332.058594 220.925781 331.878906 221.039062 331.6875 221.144531 C 331.457031 221.277344 331.21875 221.394531 330.980469 221.511719 C 330.890625 221.554688 330.804688 221.601562 330.707031 221.640625 C 330.667969 221.660156 330.628906 221.675781 330.59375 221.699219 C 328.277344 222.914062 325.949219 224.125 323.632812 225.339844 C 323.597656 225.359375 323.570312 225.378906 323.535156 225.394531 C 323.46875 225.429688 323.40625 225.464844 323.339844 225.5 C 323.175781 225.589844 323.023438 225.679688 322.855469 225.769531 C 322.316406 226.082031 321.773438 226.398438 321.234375 226.71875 C 318.238281 228.496094 315.304688 230.382812 312.21875 231.996094 C 311.648438 232.304688 311.058594 232.597656 310.46875 232.878906 C 309.660156 233.253906 308.859375 233.609375 308.027344 233.9375 C 306.363281 234.609375 304.640625 235.175781 302.867188 235.53125 C 302.613281 235.582031 302.359375 235.628906 302.109375 235.671875 C 301.992188 235.691406 301.878906 235.707031 301.765625 235.722656 C 300.632812 235.886719 299.492188 235.917969 298.347656 235.875 C 297.980469 235.863281 297.609375 235.84375 297.242188 235.816406 C 297.023438 235.800781 296.820312 235.789062 296.605469 235.769531 C 296.269531 235.75 295.925781 235.753906 295.582031 235.765625 C 295.105469 235.785156 294.609375 235.824219 294.125 235.832031 C 293.570312 235.84375 293.015625 235.820312 292.484375 235.667969 C 292.328125 235.625 292.1875 235.574219 292.046875 235.511719 C 292.007812 235.496094 291.96875 235.476562 291.929688 235.457031 C 291.910156 235.445312 291.882812 235.429688 291.851562 235.410156 C 291.835938 235.398438 291.816406 235.378906 291.800781 235.355469 C 291.785156 235.328125 291.785156 235.296875 291.769531 235.265625 C 291.753906 235.234375 291.738281 235.207031 291.714844 235.179688 C 291.667969 235.140625 291.632812 235.109375 291.59375 235.082031 C 291.558594 235.054688 291.519531 235.035156 291.480469 235.011719 C 291.460938 235 291.441406 234.988281 291.414062 234.972656 C 291.402344 234.964844 291.40625 234.960938 291.394531 234.957031 C 291.394531 234.957031 291.382812 234.957031 291.382812 234.957031 C 291.375 234.957031 291.363281 234.957031 291.351562 234.953125 C 291.320312 234.949219 291.289062 234.9375 291.269531 234.925781 L 291.261719 234.921875 C 291.011719 235.089844 290.75 235.25 290.488281 235.410156 C 286.632812 239.628906 282.460938 243.566406 278.011719 247.210938 C 270.644531 253.25 262.566406 258.480469 254.109375 262.851562 C 253.855469 263.019531 253.601562 263.15625 253.339844 263.28125 C 253.261719 263.335938 253.175781 263.367188 253.085938 263.375 C 247.359375 266.269531 241.46875 268.773438 235.523438 270.871094 C 236.21875 270.894531 236.917969 270.921875 237.621094 270.957031 L 237.804688 270.898438 C 238.402344 270.703125 239.054688 270.5625 239.671875 270.363281 C 239.925781 270.285156 240.179688 270.195312 240.402344 270.085938 L 242.878906 268.851562 C 244.441406 268.230469 246.054688 267.574219 247.679688 266.976562 C 248.769531 266.570312 249.875 266.191406 250.976562 265.882812 C 252.089844 265.566406 253.1875 265.355469 254.292969 265.203125 C 255.921875 264.972656 257.5625 264.875 259.25 264.726562 C 260.171875 264.652344 261.074219 264.523438 261.992188 264.449219 C 262.398438 264.414062 262.8125 264.390625 263.230469 264.382812 L 267.277344 264.558594 C 267.765625 264.554688 268.257812 264.515625 268.746094 264.460938 C 269.503906 264.371094 270.28125 264.25 271.042969 264.160156 C 272.316406 264.027344 273.578125 263.960938 274.824219 263.765625 C 275.351562 263.6875 275.859375 263.59375 276.367188 263.449219 C 277.015625 263.269531 277.660156 263.070312 278.324219 262.925781 C 278.777344 262.824219 279.226562 262.738281 279.6875 262.699219 L 281.078125 262.59375 C 281.226562 262.574219 281.550781 262.464844 281.625 262.472656 C 281.820312 262.492188 281.902344 262.59375 281.957031 262.695312 C 281.992188 262.773438 282.058594 262.941406 281.878906 263.136719 C 281.523438 263.542969 281.117188 263.902344 280.707031 264.257812 C 279.78125 265.070312 278.761719 265.800781 277.796875 266.535156 C 276.65625 267.414062 275.460938 268.230469 274.214844 268.949219 C 272.351562 270.03125 270.351562 270.898438 268.324219 271.625 C 265.5 272.625 262.570312 273.308594 259.613281 273.6875 C 263.386719 274.09375 267.167969 274.414062 270.957031 274.570312 C 276.085938 274.78125 281.21875 274.75 286.414062 274.347656 C 286.4375 272.347656 287.476562 270.480469 289.699219 270.257812 C 290.519531 270.140625 291.710938 270.339844 292.695312 270.800781 C 293.457031 271.160156 294.085938 271.679688 294.40625 272.296875 C 295.03125 273.484375 294.8125 275.03125 294.105469 276.324219 C 293.988281 276.523438 293.863281 276.714844 293.730469 276.898438 C 293.492188 277.414062 293.128906 277.898438 292.675781 278.300781 C 292.226562 278.695312 291.722656 279.050781 291.1875 279.246094 C 290.691406 279.425781 290.164062 279.425781 289.597656 279.273438 C 289.109375 279.117188 288.667969 278.851562 288.292969 278.5 C 288.179688 278.421875 288.082031 278.335938 287.984375 278.242188 C 287.25 277.5625 286.730469 276.5625 286.523438 275.496094 C 279.664062 276.539062 272.808594 276.625 265.984375 276.425781 C 261.070312 276.28125 256.152344 275.925781 251.230469 275.335938 C 247.980469 274.949219 244.742188 274.433594 241.496094 273.90625 C 238.910156 273.46875 236.25 273.597656 233.648438 273.222656 C 232.9375 273.121094 232.222656 273.023438 231.5625 272.769531 C 231.300781 272.667969 231.078125 272.550781 230.855469 272.425781 C 230.769531 272.453125 230.675781 272.476562 230.59375 272.503906 C 222.027344 275.144531 213.679688 277.257812 205.148438 277.9375 C 199.46875 278.390625 193.738281 278.179688 187.8125 277.238281 C 187.597656 277.210938 187.4375 277.007812 187.46875 276.792969 C 187.503906 276.578125 187.695312 276.425781 187.917969 276.453125 C 193.78125 277.074219 199.425781 276.894531 204.984375 276.253906 C 206.402344 276.089844 207.820312 275.917969 209.214844 275.695312 C 216.140625 274.621094 222.984375 272.757812 229.953125 270.480469 C 237.296875 268.121094 244.566406 265.121094 251.589844 261.527344 L 253.351562 259.4375 C 253.992188 258.722656 254.472656 257.898438 254.90625 257.042969 C 255.59375 255.652344 256.128906 254.164062 256.730469 252.761719 C 256.851562 252.503906 256.980469 252.246094 257.097656 251.988281 C 258.175781 249.21875 259.230469 246.429688 260.347656 243.671875 C 261.65625 240.457031 263.089844 237.308594 264.769531 234.304688 C 268.1875 228.441406 272.230469 222.855469 275.675781 216.980469 C 277.046875 214.648438 278.273438 212.253906 279.417969 209.8125 C 279.5625 209.5 279.714844 209.191406 279.859375 208.882812 C 279.730469 208.785156 279.613281 208.683594 279.484375 208.574219 C 278.9375 208.074219 278.511719 207.453125 278.3125 206.746094 C 277.984375 205.550781 278.242188 204.285156 278.921875 203.328125 C 279.617188 202.339844 280.742188 201.675781 282.058594 201.738281 C 282.375 201.75 283.140625 201.980469 283.867188 202.328125 C 284.53125 202.269531 284.992188 202.675781 285.277344 203.296875 C 285.496094 203.527344 285.65625 203.761719 285.734375 203.976562 C 286.109375 204.992188 285.898438 206.667969 285.191406 207.929688 C 284.636719 208.921875 283.769531 209.613281 282.773438 209.773438 C 282.441406 209.824219 282.128906 209.800781 281.832031 209.710938 C 281.652344 209.6875 281.472656 209.648438 281.289062 209.59375 C 281.21875 209.570312 281.144531 209.546875 281.085938 209.523438 C 281.03125 209.703125 280.976562 209.878906 280.910156 210.054688 C 280.347656 211.691406 279.625 213.265625 278.875 214.820312 C 277.152344 218.378906 275.136719 221.796875 273.066406 225.195312 C 273.738281 224.574219 274.433594 223.992188 275.164062 223.453125 C 276.089844 222.773438 277.074219 222.179688 278.136719 221.585938 C 278.445312 221.40625 279.296875 220.679688 280.078125 220.460938 C 280.597656 220.316406 281.023438 220.328125 281.300781 220.539062 C 281.339844 220.554688 281.464844 220.640625 281.480469 220.835938 C 281.496094 221.039062 281.457031 221.546875 281.449219 221.628906 L 281.304688 224.496094 C 281.226562 225.613281 281.054688 226.734375 280.8125 227.84375 C 280.457031 229.496094 279.953125 231.121094 279.40625 232.695312 C 278.019531 236.59375 276.222656 240.347656 274.039062 243.863281 C 272.425781 246.460938 270.617188 248.945312 268.574219 251.234375 C 269.832031 250.335938 271.082031 249.417969 272.308594 248.476562 C 274.023438 246.261719 275.597656 243.878906 277.617188 241.996094 C 278.890625 240.855469 280.238281 239.78125 281.652344 238.785156 C 283.429688 237.515625 285.292969 236.351562 287.101562 235.144531 C 294.699219 227.039062 301.03125 217.859375 305.546875 207.691406 C 304.347656 205.878906 302.910156 204.183594 301.671875 202.355469 C 301.066406 201.46875 300.527344 200.550781 300.074219 199.585938 C 299.699219 198.792969 299.359375 197.996094 299.054688 197.183594 C 298.351562 195.277344 297.851562 193.316406 297.449219 191.347656 C 296.941406 188.839844 296.59375 186.296875 296.332031 183.734375 C 296.15625 182.058594 296.035156 180.375 295.875 178.683594 C 295.71875 176.957031 295.542969 175.246094 295.386719 173.53125 C 295.277344 172.375 295.179688 171.21875 295.128906 170.054688 C 295.101562 169.503906 294.929688 168.480469 295 167.652344 C 295.054688 167.09375 295.230469 166.609375 295.5 166.273438 C 295.730469 166.007812 295.992188 165.933594 296.222656 165.929688 C 296.433594 165.925781 296.660156 165.988281 296.878906 166.171875 C 297.058594 166.328125 297.285156 166.796875 297.460938 167.003906 L 298.171875 167.863281 C 298.933594 168.875 299.628906 169.96875 300.269531 171.105469 C 300.902344 172.234375 301.46875 173.398438 301.972656 174.554688 C 303.132812 177.316406 304.054688 180.117188 304.808594 182.960938 C 305.191406 184.382812 305.527344 185.816406 305.835938 187.261719 C 305.855469 186.976562 305.871094 186.6875 305.886719 186.402344 C 306.289062 180.464844 307.109375 174.691406 308.308594 168.992188 C 309.078125 165.324219 309.988281 161.683594 311.035156 158.046875 C 312.035156 154.566406 313.121094 151.085938 314.351562 147.597656 C 314.265625 147.542969 314.183594 147.484375 314.089844 147.417969 C 312.589844 146.277344 312.59375 144.191406 313.503906 142.710938 C 313.773438 142.28125 314.109375 141.910156 314.488281 141.628906 C 315.449219 140.730469 316.792969 140.492188 318.183594 141.664062 C 319.347656 142.652344 319.53125 144.167969 319.082031 145.476562 C 319.042969 145.90625 318.917969 146.3125 318.722656 146.652344 C 318.398438 147.21875 317.871094 147.644531 317.144531 147.789062 C 316.71875 147.992188 316.253906 148.097656 315.765625 148.066406 C 315.511719 149.089844 315.226562 150.101562 314.972656 151.121094 C 314.371094 153.449219 313.792969 155.761719 313.230469 158.066406 C 312.855469 159.617188 312.472656 161.15625 312.101562 162.695312 C 311.179688 166.5625 310.339844 170.421875 309.644531 174.324219 C 308.839844 178.824219 308.269531 183.378906 307.855469 188.042969 C 307.6875 190 307.492188 191.964844 307.390625 193.964844 C 307.375 194.511719 307.382812 195.058594 307.402344 195.601562 C 307.441406 195.839844 307.480469 196.078125 307.511719 196.316406 C 307.664062 197.375 307.773438 198.4375 307.859375 199.503906 C 307.9375 200.113281 308.027344 200.726562 308.097656 201.335938 C 312.851562 188.738281 317.144531 176.664062 322.628906 164.976562 C 325.703125 158.425781 329.152344 152.003906 333.226562 145.667969 C 333.164062 145.5625 333.105469 145.449219 333.054688 145.339844 C 332.96875 145.160156 332.90625 144.96875 332.84375 144.773438 C 332.363281 143.347656 332.230469 141.714844 331.960938 140.367188 C 331.796875 139.300781 331.644531 138.242188 331.472656 137.203125 C 331.207031 135.578125 330.914062 133.976562 330.855469 132.359375 C 330.796875 130.558594 330.972656 128.742188 331.480469 126.878906 C 331.664062 126.230469 331.882812 125.578125 332.121094 124.929688 C 332.359375 124.285156 332.628906 123.648438 332.902344 123.035156 C 332.902344 123.035156 334.121094 120.707031 334.121094 120.707031 L 334.855469 119.5625 L 335.449219 118.863281 C 336.164062 118.1875 336.613281 118.203125 336.949219 118.261719 C 337.128906 118.292969 337.234375 118.316406 337.414062 118.425781 C 337.460938 118.457031 337.484375 118.507812 337.527344 118.554688 C 337.796875 118.875 338.019531 119.449219 338.28125 120.03125 C 338.535156 120.738281 338.71875 121.449219 338.871094 122.167969 C 339.074219 123.207031 339.183594 124.261719 339.347656 125.332031 L 339.605469 126.984375 C 339.742188 128.074219 339.804688 129.195312 339.800781 130.316406 C 339.792969 130.519531 339.789062 130.71875 339.792969 130.921875 C 339.847656 130.648438 339.925781 130.382812 340.003906 130.117188 C 340.417969 128.675781 340.953125 127.273438 341.582031 125.90625 C 342.972656 122.832031 344.75 119.851562 347.195312 117.0625 C 347.488281 116.71875 347.800781 116.386719 348.136719 116.0625 C 348 115.730469 347.890625 115.375 347.828125 115.003906 C 347.617188 113.726562 347.886719 112.339844 348.632812 111.371094 C 348.894531 111.027344 349.265625 110.558594 349.707031 110.242188 C 349.894531 110.105469 350.089844 109.988281 350.296875 109.90625 C 350.6875 109.660156 351.191406 109.398438 351.652344 109.273438 C 352.109375 109.15625 352.542969 109.183594 352.914062 109.332031 C 354.425781 109.933594 355.273438 111.429688 355.410156 112.953125 C 355.632812 114.136719 355.34375 115.390625 354.703125 116.363281 C 354.351562 116.902344 353.886719 117.355469 353.335938 117.65625 C 353.109375 117.773438 352.878906 117.871094 352.640625 117.945312 C 351.886719 118.410156 351.019531 118.535156 350.144531 118.160156 C 349.679688 117.945312 349.269531 117.648438 348.929688 117.285156 C 348.855469 117.414062 348.769531 117.539062 348.683594 117.660156 C 346.902344 120.308594 345.410156 122.863281 344.191406 125.5 C 343.46875 127.078125 342.859375 128.679688 342.210938 130.269531 C 341.765625 131.34375 341.226562 132.367188 340.820312 133.46875 C 340.5 134.304688 340.210938 135.15625 339.941406 136.023438 C 341.023438 134.589844 342.09375 133.257812 343.207031 132.058594 C 345.109375 130.023438 347.109375 128.355469 349.359375 127.175781 C 350.535156 126.566406 351.761719 126.0625 353.105469 125.75 C 355.40625 125.207031 357.972656 125.144531 360.941406 125.636719 C 361.136719 124.503906 361.875 123.402344 362.671875 122.710938 C 363.683594 121.828125 365.328125 122.113281 365.964844 123.324219 C 365.976562 123.359375 366 123.398438 366.011719 123.433594 C 366.328125 123.667969 366.601562 123.945312 366.777344 124.289062 C 368.539062 127.636719 362.6875 131.222656 361.074219 127.191406 C 361.0625 127.148438 361.039062 127.101562 361.027344 127.058594 Z M 280.046875 263.515625 C 279.058594 264.03125 278.066406 264.578125 277 265.007812 C 275.066406 265.796875 273.019531 266.417969 271.132812 267.019531 C 267.714844 268.105469 264.214844 268.957031 260.660156 269.582031 C 257.113281 270.210938 253.515625 270.609375 249.9375 270.800781 L 242.527344 271.136719 C 241.925781 271.171875 241.289062 271.167969 240.65625 271.1875 C 240.390625 271.15625 240.109375 271.128906 239.839844 271.105469 C 239.863281 271.101562 239.875 271.097656 239.890625 271.089844 C 240.171875 271.011719 240.460938 270.921875 240.726562 270.8125 L 243.183594 269.691406 C 244.765625 269.136719 246.398438 268.542969 248.035156 268.019531 C 249.121094 267.675781 250.210938 267.367188 251.285156 267.113281 C 252.359375 266.867188 253.40625 266.722656 254.453125 266.628906 C 256.074219 266.484375 257.695312 266.464844 259.363281 266.398438 L 263.226562 266.21875 C 264.171875 266.214844 265.105469 266.3125 266.042969 266.34375 C 266.480469 266.359375 266.90625 266.359375 267.34375 266.335938 C 267.878906 266.308594 268.421875 266.246094 268.96875 266.164062 C 269.738281 266.042969 270.5 265.882812 271.257812 265.761719 C 272.363281 265.566406 273.453125 265.429688 274.53125 265.203125 C 275.277344 265.042969 276.019531 264.84375 276.738281 264.566406 C 277.347656 264.328125 277.960938 264.078125 278.582031 263.871094 C 278.980469 263.738281 279.390625 263.625 279.808594 263.546875 Z M 279.042969 264.667969 C 278.460938 265.070312 277.859375 265.441406 277.292969 265.832031 C 276.125 266.621094 274.917969 267.324219 273.675781 267.980469 C 271.835938 268.96875 269.914062 269.835938 267.9375 270.527344 C 264.625 271.683594 261.164062 272.40625 257.695312 272.695312 C 256.496094 272.820312 255.097656 272.964844 253.683594 272.984375 L 253.503906 272.960938 C 250.613281 272.59375 247.726562 272.214844 244.839844 271.792969 L 249.980469 271.523438 C 253.585938 271.308594 257.203125 270.878906 260.777344 270.222656 C 264.347656 269.566406 267.878906 268.683594 271.316406 267.566406 C 273.207031 266.945312 275.265625 266.324219 277.210938 265.496094 C 277.824219 265.234375 278.441406 264.96875 279.042969 264.667969 Z M 280.011719 221.789062 C 279.980469 221.828125 279.957031 221.867188 279.9375 221.90625 C 278.320312 224.253906 276.835938 226.71875 275.4375 229.246094 C 273.117188 233.4375 271.050781 237.796875 269.015625 242.046875 C 267.175781 245.894531 265.039062 249.960938 262.289062 253.453125 C 261.226562 254.804688 260.082031 256.089844 258.8125 257.210938 C 258.46875 257.363281 258.113281 257.503906 257.761719 257.632812 C 257.675781 257.667969 257.566406 257.667969 257.503906 257.742188 C 257.292969 257.972656 257.476562 257.855469 257.398438 258.160156 C 257.320312 258.175781 257.265625 258.25 257.28125 258.328125 C 257.289062 258.339844 257.296875 258.351562 257.292969 258.359375 C 257.214844 258.417969 257.132812 258.472656 257.054688 258.53125 C 257.597656 257.363281 258.0625 256.207031 258.472656 255.269531 C 258.828125 254.414062 259.1875 253.628906 259.410156 252.785156 C 259.449219 252.660156 259.480469 252.535156 259.503906 252.40625 C 259.636719 252.089844 259.761719 251.769531 259.882812 251.457031 L 260.082031 250.96875 C 260.539062 249.875 260.988281 248.777344 261.441406 247.679688 C 262.949219 244.042969 264.601562 240.332031 266.605469 236.875 C 267.484375 235.335938 268.476562 233.875 269.488281 232.453125 C 270.515625 231.035156 271.582031 229.65625 272.785156 228.402344 C 273.757812 227.332031 274.722656 226.375 275.722656 225.449219 C 276.714844 224.511719 277.722656 223.601562 278.886719 222.730469 C 279.089844 222.578125 279.523438 222.164062 280.011719 221.789062 Z M 280.820312 221.191406 C 280.875 221.140625 280.921875 221.09375 280.960938 221.058594 L 280.917969 221.59375 L 280.617188 224.433594 C 280.492188 225.511719 280.269531 226.582031 279.984375 227.640625 C 279.542969 229.234375 278.96875 230.796875 278.359375 232.300781 C 276.882812 236.070312 275.015625 239.683594 272.777344 243.054688 C 270.996094 245.742188 268.972656 248.257812 266.769531 250.617188 C 266.214844 251.207031 265.664062 251.792969 265.09375 252.359375 C 263.984375 253.503906 262.796875 254.648438 261.496094 255.621094 C 261.390625 255.699219 261.292969 255.777344 261.1875 255.855469 C 261.761719 255.222656 262.308594 254.5625 262.84375 253.882812 C 265.597656 250.332031 267.753906 246.226562 269.613281 242.332031 C 271.300781 238.789062 273.011719 235.179688 274.863281 231.644531 C 276.53125 228.472656 278.316406 225.371094 280.269531 222.421875 C 280.425781 222.191406 280.621094 221.984375 280.730469 221.730469 C 280.792969 221.609375 280.800781 221.496094 280.832031 221.363281 C 280.867188 221.308594 280.863281 221.238281 280.820312 221.191406 Z M 282.648438 239.640625 C 280.628906 241.574219 278.535156 243.441406 276.382812 245.234375 C 276.109375 245.453125 275.84375 245.675781 275.578125 245.898438 C 276.480469 244.84375 277.414062 243.828125 278.457031 242.949219 C 279.402344 242.121094 280.40625 241.359375 281.402344 240.589844 C 281.808594 240.269531 282.230469 239.953125 282.648438 239.640625 Z M 306.839844 204.613281 C 306.632812 205.144531 306.410156 205.671875 306.191406 206.195312 C 305.214844 204.597656 304.105469 203.046875 303.148438 201.417969 C 302.664062 200.578125 302.207031 199.714844 301.847656 198.816406 C 301.535156 198.046875 301.277344 197.273438 301.019531 196.5 C 300.398438 194.65625 299.902344 192.804688 299.523438 190.925781 C 299.035156 188.480469 298.714844 185.996094 298.414062 183.5 C 298.214844 181.832031 297.992188 180.152344 297.785156 178.472656 C 297.5625 176.757812 297.304688 175.0625 297.101562 173.355469 C 297.066406 173.019531 297.027344 172.683594 296.992188 172.34375 C 297.558594 174.257812 298.164062 176.160156 298.707031 178.078125 C 300.363281 183.839844 301.914062 189.632812 303.605469 195.386719 C 304.414062 198.152344 305.601562 200.84375 306.523438 203.589844 C 306.636719 203.925781 306.738281 204.269531 306.839844 204.613281 Z M 306.929688 202.882812 C 306.0625 200.3125 304.988281 197.789062 304.246094 195.195312 C 302.953125 190.625 301.683594 186.046875 300.476562 181.445312 C 300.054688 179.792969 299.617188 178.132812 299.21875 176.472656 C 298.738281 174.46875 298.351562 172.445312 297.882812 170.4375 C 298.191406 170.929688 298.492188 171.433594 298.773438 171.941406 C 299.363281 173.019531 299.902344 174.132812 300.363281 175.234375 C 301.519531 177.917969 302.429688 180.636719 303.191406 183.398438 C 303.964844 186.175781 304.589844 188.996094 305.160156 191.875 C 305.421875 193.167969 305.667969 194.480469 305.910156 195.796875 C 305.972656 196.351562 306.054688 196.902344 306.148438 197.453125 C 306.285156 198.269531 306.4375 199.078125 306.597656 199.890625 C 306.675781 200.507812 306.742188 201.125 306.808594 201.742188 C 306.855469 202.125 306.894531 202.503906 306.929688 202.882812 Z M 316.011719 143.71875 C 315.960938 143.707031 315.90625 143.699219 315.859375 143.707031 C 315.890625 143.675781 315.929688 143.65625 315.984375 143.648438 C 316.019531 143.648438 316.007812 143.691406 316.011719 143.71875 Z M 316.171875 143.65625 C 316.175781 143.675781 316.175781 143.6875 316.171875 143.695312 C 316.167969 143.707031 316.15625 143.710938 316.148438 143.710938 C 316.113281 143.707031 316.140625 143.683594 316.171875 143.65625 Z M 331.125 220.039062 C 329.734375 220.0625 328.351562 220.128906 326.988281 220.273438 C 324.503906 220.527344 322.042969 220.988281 319.628906 221.597656 C 315.601562 222.609375 311.703125 224.085938 307.996094 226.023438 C 305.238281 227.472656 302.503906 229.035156 299.703125 230.4375 C 298.5 231.035156 297.292969 231.597656 296.074219 232.121094 C 295.445312 232.378906 294.839844 232.652344 294.21875 232.902344 C 294.890625 232.398438 295.539062 231.875 296.1875 231.34375 C 300.351562 229.476562 304.320312 227.050781 308.503906 225.273438 C 309.835938 224.691406 311.253906 224.125 312.703125 223.5625 C 314.777344 222.75 316.929688 221.960938 319.109375 221.34375 C 321.570312 220.640625 324.054688 220.117188 326.457031 219.96875 C 327.332031 219.898438 328.195312 219.832031 329.066406 219.828125 C 329.640625 219.824219 330.207031 219.847656 330.773438 219.914062 C 330.816406 219.917969 330.953125 219.976562 331.125 220.039062 Z M 330.554688 220.480469 C 330.417969 220.550781 330.289062 220.621094 330.148438 220.6875 C 330.0625 220.730469 329.976562 220.773438 329.886719 220.816406 C 329.8125 220.851562 329.738281 220.886719 329.664062 220.921875 C 329.402344 221.042969 329.140625 221.167969 328.878906 221.289062 C 328.019531 221.695312 327.167969 222.109375 326.324219 222.542969 C 325.589844 222.921875 324.863281 223.320312 324.136719 223.722656 C 323.523438 224.070312 322.90625 224.417969 322.300781 224.78125 C 321.539062 225.230469 320.785156 225.695312 320.039062 226.167969 C 317.445312 227.796875 314.890625 229.492188 312.199219 230.96875 C 311.507812 231.355469 310.800781 231.726562 310.085938 232.078125 C 309.148438 232.53125 308.195312 232.953125 307.214844 233.3125 C 305.738281 233.859375 304.207031 234.265625 302.648438 234.515625 C 302.28125 234.574219 301.914062 234.628906 301.542969 234.664062 C 301.003906 234.714844 300.460938 234.730469 299.914062 234.722656 C 298.914062 234.710938 297.925781 234.621094 296.929688 234.5 C 295.992188 234.386719 295.066406 234.253906 294.128906 234.136719 L 294.054688 234.125 C 294.875 233.800781 295.664062 233.410156 296.46875 233.039062 C 298.105469 232.300781 299.710938 231.472656 301.308594 230.617188 C 303.683594 229.347656 306.019531 228.003906 308.382812 226.734375 C 312.003906 224.777344 315.839844 223.289062 319.796875 222.242188 C 322.175781 221.613281 324.609375 221.167969 327.042969 220.835938 C 328.238281 220.675781 329.441406 220.535156 330.640625 220.433594 Z M 335.398438 142.378906 C 334.859375 143.183594 334.316406 143.984375 333.796875 144.792969 C 333.714844 144.507812 333.640625 144.21875 333.582031 143.921875 C 333.335938 142.664062 333.273438 141.320312 333.121094 140.179688 C 332.933594 139.117188 332.71875 138.074219 332.570312 137.03125 C 332.335938 135.457031 332.242188 133.894531 332.234375 132.332031 C 332.234375 130.660156 332.378906 128.984375 332.871094 127.261719 C 333.027344 126.640625 333.214844 126.011719 333.417969 125.382812 C 333.625 124.761719 333.847656 124.140625 334.09375 123.546875 L 335.148438 121.25 L 335.453125 120.652344 C 335.445312 120.71875 335.441406 120.792969 335.425781 120.859375 C 335.351562 121.550781 335.246094 122.238281 335.210938 122.941406 C 335.09375 125.015625 335.234375 127.144531 335.175781 129.148438 C 335.117188 132.734375 334.949219 136.328125 335.234375 139.902344 C 335.296875 140.71875 335.304688 141.558594 335.398438 142.378906 Z M 337.207031 139.796875 C 336.90625 140.222656 336.597656 140.652344 336.292969 141.085938 C 336.253906 141.148438 336.207031 141.210938 336.160156 141.273438 C 336.136719 140.921875 336.113281 140.574219 336.089844 140.222656 C 336.011719 139.082031 335.953125 137.941406 335.917969 136.800781 C 335.859375 134.257812 335.898438 131.707031 335.910156 129.15625 C 335.90625 126.824219 335.613281 124.335938 335.792969 121.941406 C 335.816406 121.53125 335.84375 121.125 335.917969 120.722656 C 336.035156 120.164062 336.226562 119.628906 336.433594 119.097656 C 336.476562 119.054688 336.519531 119.015625 336.5625 118.984375 C 336.621094 118.929688 336.660156 118.851562 336.707031 118.878906 C 336.765625 118.917969 336.644531 119.003906 336.675781 119.09375 C 336.769531 119.425781 336.835938 119.921875 336.914062 120.445312 C 337.03125 120.941406 337.117188 121.433594 337.191406 121.929688 C 337.386719 123.128906 337.484375 124.328125 337.621094 125.554688 C 337.621094 125.554688 337.851562 127.226562 337.851562 127.226562 C 338.007812 128.238281 338.078125 129.28125 338.101562 130.328125 C 338.113281 131.386719 338.082031 132.445312 338 133.472656 C 337.917969 134.433594 337.800781 135.378906 337.691406 136.3125 C 337.5625 137.265625 337.4375 138.210938 337.300781 139.15625 C 337.269531 139.371094 337.238281 139.582031 337.207031 139.796875 Z M 349.59375 161.308594 C 348.386719 162.171875 347.152344 162.980469 345.964844 163.867188 C 345.652344 164.105469 345.347656 164.355469 345.042969 164.605469 C 342.574219 166.609375 340.15625 168.632812 337.472656 170.21875 C 336.582031 170.746094 335.660156 171.230469 334.691406 171.625 C 333.75 172.007812 332.753906 172.292969 331.730469 172.523438 C 329.460938 173.011719 327.007812 172.761719 324.636719 172.875 C 327.191406 171.09375 329.761719 169.289062 332.492188 167.742188 C 335.898438 165.816406 339.453125 164.164062 343.070312 162.808594 C 343.847656 162.519531 344.675781 162.289062 345.507812 162.082031 C 346.851562 161.765625 348.238281 161.539062 349.59375 161.308594 Z M 327.332031 169.636719 C 328.117188 169.046875 328.917969 168.484375 329.734375 167.945312 C 330.589844 167.386719 331.449219 166.84375 332.335938 166.335938 C 334.117188 165.320312 335.988281 164.441406 337.875 163.65625 C 339.152344 163.125 340.441406 162.625 341.730469 162.1875 C 342.957031 161.765625 344.195312 161.429688 345.441406 161.15625 C 346.707031 160.878906 347.972656 160.664062 349.269531 160.484375 C 349.585938 160.453125 349.898438 160.433594 350.21875 160.433594 C 350.503906 160.429688 350.789062 160.4375 351.078125 160.464844 C 351.070312 160.464844 351.066406 160.46875 351.066406 160.472656 C 351.015625 160.460938 350.960938 160.453125 350.90625 160.453125 C 349.636719 160.425781 348.347656 160.828125 347.058594 161.066406 C 345.59375 161.332031 344.15625 161.671875 342.828125 162.152344 C 339.152344 163.472656 335.570312 165.136719 332.082031 166.996094 C 330.484375 167.847656 328.894531 168.714844 327.332031 169.636719 Z M 326.601562 199.421875 C 326.542969 199.355469 326.480469 199.296875 326.414062 199.25 C 326.457031 199.257812 326.496094 199.273438 326.535156 199.292969 L 326.554688 199.304688 C 326.570312 199.339844 326.589844 199.378906 326.601562 199.421875 Z M 350.882812 113.738281 C 350.878906 113.753906 350.882812 113.773438 350.871094 113.78125 C 350.867188 113.789062 350.847656 113.792969 350.835938 113.789062 C 350.792969 113.78125 350.824219 113.753906 350.882812 113.738281 Z M 366.011719 123.433594 C 366.320312 124.101562 366.339844 124.949219 366.136719 125.726562 C 366.164062 125.394531 366.160156 125.054688 366.113281 124.714844 L 365.125 125.101562 C 365.027344 124.304688 364.511719 123.503906 363.675781 123.277344 C 363.191406 123.144531 362.648438 123.652344 362.347656 123.972656 C 362.238281 124.09375 362.140625 124.226562 362.074219 124.367188 C 362.015625 124.472656 361.976562 124.582031 361.925781 124.6875 C 361.816406 125.039062 361.789062 125.425781 361.847656 125.800781 L 361.804688 125.789062 C 361.785156 125.785156 361.753906 125.78125 361.734375 125.777344 L 361.660156 125.761719 C 361.703125 125.40625 361.796875 125.039062 361.925781 124.6875 C 361.964844 124.578125 362.015625 124.46875 362.074219 124.367188 C 362.46875 123.523438 363.105469 122.820312 363.851562 122.613281 C 364.597656 122.402344 365.4375 123.003906 365.992188 123.417969 C 366.003906 123.425781 366.011719 123.429688 366.011719 123.433594 Z M 366.136719 125.726562 C 366.058594 126.605469 365.699219 127.429688 364.9375 128.011719 C 364.171875 128.605469 362.410156 128.226562 361.917969 127.332031 C 361.878906 127.265625 361.84375 127.191406 361.816406 127.117188 C 361.859375 127.121094 361.902344 127.125 361.945312 127.128906 C 362.105469 127.152344 362.257812 127.113281 362.386719 127.035156 C 362.507812 127.171875 362.632812 127.289062 362.78125 127.394531 C 364.445312 128.539062 365.734375 127.285156 366.136719 125.726562 Z M 365.125 125.101562 C 365.230469 126.039062 364.757812 126.964844 363.515625 126.914062 C 361.90625 126.851562 362.984375 124.636719 364.082031 124.425781 C 364.347656 124.371094 364.335938 124.910156 364.402344 125.175781 C 364.410156 125.230469 364.414062 125.296875 364.429688 125.371094 Z M 364.429688 125.371094 C 364.492188 126.046875 364.273438 127.277344 363.410156 126.550781 C 363.238281 126.402344 363.027344 126.148438 362.882812 125.976562 Z M 364.429688 125.371094 " fill-opacity="1" fill-rule="evenodd"/></g></g></g><g clip-path="url(#76bc1fabec)"><g clip-path="url(#e0cf0023a3)"><path fill="#07161b" d="M 65.714844 37.5 L 300.464844 37.5 L 300.464844 272.25 L 65.714844 272.25 Z M 65.714844 37.5 " fill-opacity="1" fill-rule="nonzero"/></g></g><g clip-path="url(#39f8d0aae8)"><path fill="#cec7bf" d="M 215.390625 246.59375 C 216.054688 248.886719 214.328125 251.179688 211.933594 251.179688 L 153.429688 251.179688 C 151.683594 251.179688 150.191406 249.933594 149.894531 248.207031 C 148.816406 242.003906 146.035156 228.015625 142.582031 224.808594 C 137.160156 219.769531 124.527344 222.777344 116.75 223.09375 C 99.097656 224.007812 102.375 210.714844 100.03125 197.578125 C 99.800781 196.214844 99.5 194.851562 99.097656 193.507812 C 99.097656 193.488281 99.085938 193.476562 99.085938 193.457031 C 95.761719 182.238281 86.453125 184.71875 86.867188 176.773438 C 87.121094 171.921875 100.300781 165.671875 100.332031 150.433594 C 100.34375 146.140625 99.566406 139.589844 99.4375 135.125 C 98.382812 101.367188 131.011719 76.882812 169.136719 78.863281 C 204.003906 80.664062 229.21875 99.574219 234.636719 135.289062 C 237.957031 157.308594 230.894531 175.226562 214.976562 195.886719 C 210.984375 201.070312 209.011719 210.078125 209.425781 216.609375 C 210.089844 227.097656 213.445312 239.894531 215.390625 246.59375 " fill-opacity="1" fill-rule="nonzero"/></g><path fill="#3d737f" d="M 217.722656 207.832031 C 240.199219 207.128906 264.984375 188.75 264.5625 154.246094 C 264.207031 125.300781 279.554688 102.753906 262.523438 99.398438 C 248.8125 96.699219 242.296875 113.992188 228.765625 122.875 C 228.765625 122.875 210.316406 138.800781 206.160156 149.882812 C 202.003906 160.964844 198.019531 181.667969 202.175781 192.886719 C 206.328125 204.105469 213.296875 207.972656 217.722656 207.832031 " fill-opacity="1" fill-rule="nonzero"/><path fill="#3d737f" d="M 211.238281 205.335938 C 211.238281 205.335938 249.761719 183.570312 227.855469 134.957031 C 219.488281 116.394531 203.542969 99.101562 192.929688 80.648438 C 182.800781 63.042969 157.195312 70.339844 161.644531 90.414062 C 168.726562 122.414062 162.488281 130.957031 164.65625 150.335938 C 170.550781 202.929688 211.238281 205.335938 211.238281 205.335938 " fill-opacity="1" fill-rule="nonzero"/><path fill="#cec7bf" d="M 219.773438 92.613281 C 222.78125 94.511719 226.96875 93.589844 228.933594 92.976562 C 229.609375 92.769531 230.011719 92.132812 229.914062 91.4375 C 229.617188 89.402344 228.648438 85.21875 225.648438 83.316406 C 222.644531 81.429688 218.457031 82.351562 216.484375 82.953125 C 215.8125 83.160156 215.410156 83.796875 215.507812 84.5 C 215.808594 86.539062 216.773438 90.71875 219.773438 92.613281 " fill-opacity="1" fill-rule="nonzero"/><path fill="#cec7bf" d="M 145.230469 69.496094 C 148.203125 67.554688 149.105469 63.355469 149.378906 61.316406 C 149.472656 60.613281 149.054688 59.984375 148.378906 59.789062 C 146.40625 59.210938 142.199219 58.347656 139.226562 60.289062 C 136.253906 62.230469 135.351562 66.425781 135.085938 68.46875 C 134.992188 69.164062 135.402344 69.792969 136.078125 69.996094 C 138.058594 70.566406 142.265625 71.4375 145.230469 69.496094 " fill-opacity="1" fill-rule="nonzero"/><path fill="#5c503a" d="M 108.964844 158.820312 C 107.914062 158.820312 106.835938 158.566406 105.804688 157.953125 C 104.824219 157.367188 104.5 156.089844 105.089844 155.109375 C 105.679688 154.121094 106.953125 153.796875 107.941406 154.386719 C 109.667969 155.417969 112.296875 153.226562 112.324219 153.199219 C 113.179688 152.445312 114.492188 152.53125 115.25 153.394531 C 116.011719 154.257812 115.925781 155.570312 115.0625 156.328125 C 113.796875 157.4375 111.453125 158.820312 108.964844 158.820312 " fill-opacity="1" fill-rule="nonzero"/><path fill="#5c503a" d="M 111.148438 195.203125 C 106.628906 197.269531 102.835938 197.597656 100.832031 197.597656 C 100.511719 197.597656 100.246094 197.597656 100.03125 197.578125 C 99.800781 196.214844 99.5 194.851562 99.097656 193.507812 C 99.097656 193.488281 99.085938 193.476562 99.085938 193.457031 C 99.332031 193.390625 99.597656 193.371094 99.863281 193.410156 C 99.949219 193.410156 104.039062 193.871094 109.421875 191.429688 C 110.472656 190.949219 111.699219 191.410156 112.167969 192.464844 C 112.648438 193.507812 112.179688 194.734375 111.148438 195.203125 " fill-opacity="1" fill-rule="nonzero"/><g clip-path="url(#cedf422b6f)"><path fill="#5c503a" d="M 214.535156 251.511719 C 213.78125 251.511719 213.054688 251.101562 212.691406 250.386719 C 208.511719 242.285156 207.226562 225.800781 209.171875 205.144531 C 211.925781 175.851562 203.667969 132.347656 186.96875 114.285156 C 186.195312 113.441406 186.242188 112.125 187.085938 111.351562 C 187.929688 110.566406 189.25 110.625 190.027344 111.460938 C 208.042969 130.957031 216.140625 175.472656 213.308594 205.53125 C 211.464844 225.121094 212.613281 241.179688 216.378906 248.476562 C 216.90625 249.496094 216.507812 250.75 215.488281 251.277344 C 215.183594 251.433594 214.859375 251.511719 214.535156 251.511719 " fill-opacity="1" fill-rule="nonzero"/></g><path fill="#5c503a" d="M 204.039062 235.742188 C 203.578125 235.742188 203.109375 235.585938 202.71875 235.265625 C 202.539062 235.109375 198.097656 231.449219 195.164062 227.613281 C 194.46875 226.695312 194.636719 225.398438 195.550781 224.695312 C 196.46875 224.003906 197.765625 224.179688 198.460938 225.085938 C 201.101562 228.539062 205.316406 232.019531 205.363281 232.054688 C 206.246094 232.785156 206.375 234.089844 205.648438 234.980469 C 205.238281 235.480469 204.640625 235.742188 204.039062 235.742188 " fill-opacity="1" fill-rule="nonzero"/><path fill="#3d737f" d="M 195.625 228.4375 C 179.144531 228.4375 169.992188 221.632812 167.136719 215.6875 C 165.167969 211.589844 165.636719 207.332031 168.414062 204.007812 C 170.808594 201.136719 174.167969 199.949219 177.859375 200.683594 C 186.023438 202.285156 194.628906 212.582031 198.792969 225.722656 C 198.992188 226.347656 198.882812 227.027344 198.5 227.558594 C 198.117188 228.09375 197.511719 228.410156 196.855469 228.421875 C 196.441406 228.4375 196.03125 228.4375 195.625 228.4375 " fill-opacity="1" fill-rule="nonzero"/><path fill="#5c503a" d="M 219.230469 243.738281 C 218.507812 243.738281 217.8125 243.363281 217.429688 242.699219 C 216.851562 241.707031 217.191406 240.433594 218.183594 239.863281 C 224.617188 236.136719 227.203125 233.050781 227.226562 233.027344 C 227.960938 232.144531 229.265625 232.015625 230.148438 232.742188 C 231.03125 233.460938 231.167969 234.765625 230.449219 235.648438 C 230.332031 235.796875 227.441406 239.296875 220.269531 243.460938 C 219.9375 243.648438 219.578125 243.738281 219.230469 243.738281 " fill-opacity="1" fill-rule="nonzero"/><path fill="#3d737f" d="M 228.835938 236.421875 C 228.246094 236.421875 227.675781 236.167969 227.273438 235.714844 C 226.765625 235.136719 226.625 234.332031 226.890625 233.617188 C 231.003906 222.613281 235.433594 216.59375 240.054688 215.726562 C 241.683594 215.425781 244.121094 215.613281 246.488281 218.261719 C 248.101562 220.066406 248.59375 222.320312 247.867188 224.613281 C 246.308594 229.554688 239.191406 234.058594 229.3125 236.363281 C 229.148438 236.402344 228.992188 236.421875 228.835938 236.421875 " fill-opacity="1" fill-rule="nonzero"/><g clip-path="url(#c66208f06c)"><path fill="#cec7bf" d="M 228.695312 238.914062 C 232.792969 240.6875 238.171875 238.117188 239.363281 233.8125 C 241.648438 237.757812 247.515625 239.042969 251.238281 236.410156 C 254.964844 233.777344 255.714844 227.820312 252.761719 224.347656 C 257.113281 223.019531 259.402344 217.386719 257.480469 213.265625 C 255.558594 209.140625 250.113281 207.210938 245.890625 208.910156 C 244.871094 204.851562 240.484375 201.953125 236.351562 202.601562 C 232.21875 203.253906 228.9375 207.359375 229.210938 211.535156 C 224.703125 211.246094 219.921875 214.140625 218.90625 218.542969 C 218.214844 221.546875 219.761719 224.878906 222.304688 226.539062 C 223.226562 227.140625 224.953125 227.648438 224.953125 227.648438 C 224.953125 227.648438 224.296875 229.121094 224.199219 230.015625 C 224.007812 231.738281 224.136719 233.386719 224.855469 234.984375 C 225.625 236.691406 226.960938 238.164062 228.695312 238.914062 Z M 228.695312 238.914062 " fill-opacity="1" fill-rule="nonzero"/></g><path fill="#c7b65d" d="M 243.984375 223.953125 C 244.21875 223.355469 244.371094 222.722656 244.394531 222.082031 C 244.441406 220.472656 243.640625 218.910156 242.460938 217.816406 C 241.402344 216.832031 240.070312 216.195312 238.679688 215.785156 C 238.550781 215.691406 238.308594 215.636719 238.027344 215.621094 C 237.539062 215.542969 236.875 215.609375 236.273438 215.761719 C 236.121094 215.789062 235.976562 215.828125 235.828125 215.875 C 235.648438 215.941406 235.472656 216.027344 235.304688 216.128906 C 235.246094 216.160156 235.191406 216.195312 235.140625 216.230469 C 234.871094 216.414062 234.613281 216.617188 234.371094 216.835938 C 233.683594 217.433594 233.019531 218.078125 232.539062 218.851562 C 232.183594 219.417969 231.941406 220.03125 231.8125 220.683594 C 231.679688 221.339844 231.667969 222 231.773438 222.65625 C 231.882812 223.316406 232.101562 223.9375 232.433594 224.519531 C 232.761719 225.097656 233.1875 225.601562 233.699219 226.03125 C 234.21875 226.460938 234.808594 226.792969 235.410156 227.097656 C 236.03125 227.410156 236.671875 227.695312 237.351562 227.84375 C 238.714844 228.144531 240.183594 227.855469 241.375 227.128906 C 242.566406 226.402344 243.476562 225.253906 243.984375 223.953125 Z M 243.984375 223.953125 " fill-opacity="1" fill-rule="nonzero"/><g clip-path="url(#9b2bc74039)"><path fill="#cec7bf" d="M 168.308594 145.789062 C 168.253906 145.726562 162.757812 139.308594 157.15625 131.402344 C 156.46875 130.429688 155.804688 129.472656 155.171875 128.535156 C 155.859375 127.722656 159.074219 123.839844 161.960938 118.839844 C 163.863281 115.546875 165.257812 112.414062 166.101562 109.535156 C 167.164062 105.914062 167.355469 102.683594 166.671875 99.929688 C 165.617188 95.675781 162.480469 92.519531 157.347656 90.546875 L 157.320312 90.609375 C 156.695312 90.394531 156.054688 90.246094 155.402344 90.164062 C 155.398438 90.164062 155.394531 90.164062 155.390625 90.164062 C 154.800781 90.089844 154.203125 90.074219 153.609375 90.117188 C 152.847656 90.167969 152.117188 90.3125 151.421875 90.546875 C 150.355469 90.785156 149.335938 91.140625 148.359375 91.605469 C 146.359375 92.558594 144.582031 93.964844 143.085938 95.78125 C 141.023438 98.28125 139.554688 101.503906 138.824219 105.097656 C 138.105469 108.65625 138.144531 112.4375 138.9375 116.027344 C 139.433594 118.269531 140.476562 121.144531 142.046875 124.59375 C 135.859375 128.210938 129.21875 130.976562 122.316406 132.816406 L 122.054688 132.886719 L 125.683594 145.332031 L 125.890625 145.324219 C 125.953125 145.324219 127.460938 145.25 130.890625 143.882812 C 133.996094 142.644531 139.355469 140.0625 147.269531 134.765625 C 148.183594 136.40625 149.167969 138.117188 150.214844 139.890625 C 154.949219 147.902344 159.414062 154.511719 159.457031 154.574219 L 159.636719 154.84375 L 168.46875 145.976562 Z M 149.972656 119.859375 L 149.828125 119.949219 C 149.613281 119.5625 149.40625 119.183594 149.203125 118.808594 C 146.722656 114.179688 145.300781 110.359375 144.984375 107.449219 C 144.726562 105.082031 144.734375 102.875 144.992188 100.890625 C 145.484375 98.878906 148.511719 96.546875 152.316406 96.242188 C 157.0625 95.859375 161.019531 98.757812 163.179688 104.195312 C 162.402344 106.664062 160.890625 109.3125 158.660156 112.109375 C 156.230469 115.15625 153.308594 117.761719 149.972656 119.859375 Z M 149.972656 119.859375 " fill-opacity="1" fill-rule="nonzero"/></g><path fill="#07161b" d="M 166.152344 100.058594 C 167.652344 106.101562 164.453125 113.460938 161.503906 118.566406 C 158.75 123.328125 155.703125 127.074219 154.859375 128.074219 C 153.027344 125.351562 151.429688 122.785156 150.085938 120.414062 L 150.253906 120.308594 C 153.644531 118.179688 156.609375 115.535156 159.074219 112.441406 C 162.820312 107.746094 164.578125 103.441406 164.300781 99.648438 C 164.09375 96.785156 162.75 94.691406 161.441406 93.304688 C 163.898438 95.074219 165.476562 97.332031 166.152344 100.058594 Z M 166.152344 100.058594 " fill-opacity="1" fill-rule="nonzero"/><g clip-path="url(#606ca20986)"><path fill="#07161b" d="M 130.753906 143.363281 C 128.085938 144.429688 126.585938 144.703125 126.074219 144.769531 L 122.71875 133.261719 C 129.554688 131.414062 136.132812 128.660156 142.269531 125.078125 C 142.589844 125.769531 142.929688 126.484375 143.292969 127.222656 C 144.355469 129.394531 145.597656 131.761719 147.007812 134.296875 C 139.148438 139.558594 133.835938 142.128906 130.753906 143.363281 Z M 130.753906 143.363281 " fill-opacity="1" fill-rule="nonzero"/></g><path fill="#07161b" d="M 159.71875 154.007812 C 158.835938 152.691406 154.863281 146.703125 150.675781 139.617188 C 144.429688 129.050781 140.550781 120.855469 139.460938 115.914062 C 137.859375 108.671875 139.40625 101.085938 143.496094 96.121094 C 144.996094 94.300781 146.761719 92.925781 148.742188 92.011719 C 148.269531 92.390625 147.828125 92.828125 147.421875 93.316406 C 146.167969 94.816406 145.273438 96.765625 144.757812 99.105469 C 144.21875 101.5625 144.117188 104.390625 144.457031 107.507812 C 144.78125 110.484375 146.222656 114.371094 148.734375 119.0625 C 150.738281 122.796875 153.425781 127.054688 156.726562 131.714844 C 161.800781 138.882812 166.796875 144.832031 167.746094 145.949219 Z M 159.71875 154.007812 " fill-opacity="1" fill-rule="nonzero"/></svg>